<?xml version="1.0" encoding="utf-8"?>
<!-- Generator: Adobe Illustrator 19.0.1, SVG Export Plug-In . SVG Version: 6.00 Build 0)  -->
<svg version="1.1" id="圖層_1" xmlns="http://www.w3.org/2000/svg" xmlns:xlink="http://www.w3.org/1999/xlink" x="0px" y="0px"
	 viewBox="0 0 1920 1080" style="enable-background:new 0 0 1920 1080;" xml:space="preserve">
<style type="text/css">
	.st0{fill:#ED6D34;}
</style>
<g>
	<path class="st0" d="M895.2,582H895v151h0.2c34.9,0,47.8,3,47.8-20.3V602.6C943,579.3,930.1,582,895.2,582z"/>
	<polygon class="st0" points="1525.6,682 1558.6,682 1541.1,600.9 	"/>
	<path class="st0" d="M0,0v1080h1920V0H0z M259,766H129V549h43v174h87V766z M335,766h-44V549h44V766z M475.4,766l-31.9-63.8
		L414.8,766h-43.3l49.2-109.6L367.2,549h41.1l31.9,63.8l28.7-63.8h43.3L463,658.6L516.5,766H475.4z M592,766h-43V549h43V766z
		 M755,766h-44.7L668,641v125h-43V549h45.9L711,668.5V549h44V766z M982,721.1c0,44.7-39.1,44.9-86.8,44.9H852V549h43.2
		c47.7,0,86.8,0.4,86.8,47.3V721.1z M1057,766h-43V549h43V766z M1132.5,769c0.5,0,1,0,1.5,0H1132.5z M1218,622h-34v-20.2
		c0-26.2-11.4-32.1-28.6-32.1c-18,0-23.4,3.9-23.4,27.5v122.2c0,23.6,1.9,26.8,20.4,26.8c18.5,0,31.6-1.3,31.6-26.9V675h-22v-26h56
		v76.9c0,38.9-26.7,43.2-64,43.2c-26.5,0-64,0-64-47.5V597.1c0-47.5,40.4-50.9,57.8-50.9c46.8,0,70.2,8.6,70.2,46.5V622z M1293,766
		h-43V549h43V766z M1456,593h-44v173h-43V593h-43v-44h130V593z M1576.6,766l-8.7-40h-50.5l-7.6,40h-43.3l41.1-217h63.3l46.8,217
		H1576.6z M1791,766h-97.5H1650V549h43v174h98V766z"/>
</g>
</svg>
