<?xml version="1.0" encoding="utf-8"?>
<!-- Generator: Adobe Illustrator 19.0.1, SVG Export Plug-In . SVG Version: 6.00 Build 0)  -->
<svg version="1.1" id="Capa_1" xmlns="http://www.w3.org/2000/svg" xmlns:xlink="http://www.w3.org/1999/xlink" x="0px" y="0px"
	 viewBox="-381 381.6 512 512" style="enable-background:new -381 381.6 512 512;" xml:space="preserve">
<style type="text/css">
	.st0{fill:#ED6D34;}
	.st1{fill:#FFFFFF;}
</style>
<g>
	<path class="st0" d="M-145.6,699.6c-2.4-8.5-3.6-17.5-3.6-26.7c0-55,44.8-99.8,99.8-99.8c55,0,99.8,44.8,99.8,99.8
		c0,55-44.8,99.8-99.8,99.8c-37.8,0-70.7-21.1-87.7-52.2L-145.6,699.6z"/>
	<g>
		<g>
			<g>
				<path class="st1" d="M57,562.6c-4.4,0-8-3.6-8-8v-131c0-7.4,2.1-14.7,5.9-20.9l1.9-3.1H-221c-4.4,0-8-3.6-8-8s3.6-8,8-8H89
					c22.1,0,40,17.9,40,40v90c0,4.4-3.6,8-8,8H65v33C65,559,61.4,562.6,57,562.6z M89,399.6c-13.2,0-24,10.8-24,24v82h48v-82
					C113,410.4,102.2,399.6,89,399.6z"/>
			</g>
			<g>
				<path class="st1" d="M-275,891.6c-22.1,0-40-17.9-40-40v-32c0-4.4,3.6-8,8-8h46v-78.9l-79.7,79.7c-1.5,1.5-3.5,2.3-5.7,2.3
					s-4.1-0.8-5.7-2.3c-1.5-1.5-2.3-3.5-2.3-5.7s0.8-4.1,2.3-5.7l91-91V597.9c0-4.4,3.6-8,8-8s8,3.6,8,8v96.1l14.7-14.7
					c1.5-1.5,3.5-2.3,5.7-2.3c2.1,0,4.1,0.8,5.7,2.3l49.6,49.6l14-14l-0.5-1.2c-5-13-7.6-26.7-7.6-40.8c0-62.9,51.1-114,114-114
					c62.9,0,114,51.1,114,114c0,17.5-3.9,34.4-11.6,50l-0.6,1.3l66.3,66.3c13.9,13.9,13.8,36.5-0.2,50.5
					c-6.7,6.7-15.7,10.5-25.2,10.5H93c-9.3,0-18.1-3.5-24.7-10l-3.4-3.3v13.3c0,22.1-17.9,40-40,40H-275z M-245,716.7v94.9H-7
					c4.4,0,8,3.6,8,8v22c0,0.3,0,0.5,0,0.8l0,0.2l0,0.2c0,0.3,0,0.5,0,0.8v8.1c0,13.2,10.8,24,24,24c13.2,0,24-10.8,24-24v-29.4
					L1.6,774.8l-1.3,0.6c-15.6,7.6-32.4,11.5-49.8,11.5c-39.9,0-76.3-20.4-97.3-54.6l-1.3-2.2l-15.8,15.8c-1.5,1.5-3.6,2.3-5.7,2.3
					c-2.1,0-4.2-0.9-5.7-2.3l-49.6-49.6L-245,716.7z M-299,851.6c0,13.2,10.8,24,24,24H-7.2l-1.9-3.1C-13,866.2-15,859-15,851.6
					v-8.1c0-0.3,0-0.5,0-0.8l0-0.2l0-0.2c0-0.3,0-0.5,0-0.8v-14h-284V851.6z M42.5,740.2c-7,9.5-15.3,17.8-24.8,24.8l-1.9,1.4
					l63.5,63.5c3.6,3.6,8.5,5.6,13.7,5.6c5.4,0,10.4-2.1,14.1-5.8c7.7-7.7,7.8-20.2,0.2-27.9l-63.5-63.5L42.5,740.2z M-136.3,718.4
					l0.7,1.3c17.2,31.6,50.2,51.2,86.1,51.2c54,0,98-44,98-98c0-54-44-98-98-98c-54,0-98,44-98,98c0,8.9,1.2,17.7,3.6,26.2l0.9,3.3
					l58.8-58.8H-114c-4.4,0-8-3.6-8-8s3.6-8,8-8h48c4.4,0,8,3.6,8,8v48c0,4.4-3.6,8-8,8s-8-3.6-8-8v-27.5L-136.3,718.4z"/>
			</g>
			<g>
				<path class="st1" d="M-49.5,744.2c-4.4,0-8-3.6-8-8s3.6-8,8-8c30.5,0,55.3-24.8,55.3-55.3c0-4.4,3.6-8,8-8s8,3.6,8,8
					C21.8,712.2-10.1,744.2-49.5,744.2z"/>
			</g>
			<g>
				<path class="st1" d="M-43.5,497.6c-4.4,0-8-3.6-8-8s3.6-8,8-8H5.9c4.4,0,8,3.6,8,8s-3.6,8-8,8H-43.5z"/>
			</g>
			<g>
				<path class="st1" d="M-121,453.6c-4.4,0-8-3.6-8-8s3.6-8,8-8h97.5c4.4,0,8,3.6,8,8s-3.6,8-8,8H-121z"/>
			</g>
			<g>
				<path class="st1" d="M-98.7,497.6c-4.4,0-8-3.6-8-8s3.6-8,8-8h16.4c4.4,0,8,3.6,8,8s-3.6,8-8,8H-98.7z"/>
			</g>
			<g>
				<path class="st1" d="M-371,571.6c-4.4,0-8-3.6-8-8s3.6-8,8-8h13v-46c0-4.4,3.6-8,8-8h44c4.4,0,8,3.6,8,8v46h20v-110
					c0-4.4,3.6-8,8-8h44c4.4,0,8,3.6,8,8v110h20.1v-69c0-4.4,3.6-8,8-8h45.9c4.4,0,8,3.6,8,8v69h11.1c4.4,0,8,3.6,8,8s-3.6,8-8,8
					H-371z M-181.9,555.6h29.9v-61h-29.9V555.6z M-262,555.6h28v-102h-28V555.6z M-342,555.6h28v-38h-28V555.6z"/>
			</g>
		</g>
	</g>
</g>
</svg>
