<?xml version="1.0" encoding="utf-8"?>
<!-- Generator: Adobe Illustrator 19.0.1, SVG Export Plug-In . SVG Version: 6.00 Build 0)  -->
<svg version="1.1" id="Capa_1" xmlns="http://www.w3.org/2000/svg" xmlns:xlink="http://www.w3.org/1999/xlink" x="0px" y="0px"
	 viewBox="-371.2 383.6 494.4 510" style="enable-background:new -371.2 383.6 494.4 510;" xml:space="preserve">
<style type="text/css">
	.st0{fill:#ED6D34;}
	.st1{fill:#FFFFFF;}
</style>
<g>
	<g>
		<path class="st0" d="M-199.5,658.2v23.2c0,0.2-0.2,0.4-0.4,0.4h-47.7c-0.2,0-0.4-0.2-0.4-0.4v-23.2H-199.5z"/>
		<rect x="-243.9" y="625.5" class="st0" width="40.4" height="19.7"/>
		<path class="st0" d="M-153.1,530.2c0,24.8-12.6,47.3-33.8,60.2c-10,6.2-16,13.3-18.9,23h-18h-18c-2.8-9.7-8.8-16.9-18.9-23
			c-21.2-13-33.8-35.5-33.8-60.2c0-38.9,31.7-70.6,70.6-70.6S-153.1,491.3-153.1,530.2z"/>
	</g>
	<g>
		<g>
			<g>
				<g>
					<path class="st1" d="M15.3,577c-1.6,0-3.2-0.5-4.5-1.4c-5-3.4-10.4-6.6-15.4-9.1c-18-9-36.5-13.6-55.1-13.6
						c-11.2,0-22.4,1.7-33.2,5.1c-0.8,0.2-1.6,0.4-2.4,0.4c-3.5,0-6.6-2.3-7.6-5.6c-0.6-2-0.4-4.2,0.6-6.1c1-1.9,2.7-3.3,4.7-3.9
						c12.4-3.8,25.2-5.8,38-5.8c21,0,42,5.2,62.2,15.4c5.8,2.9,11.6,6.3,17.2,10.2c1.8,1.2,3,3,3.4,5.1c0.4,2.1,0,4.2-1.2,6
						C20.5,575.7,18,577,15.3,577z"/>
				</g>
			</g>
		</g>
	</g>
	<g>
		<path class="st1" d="M-186.7,891.6c-2.5,0-5-1.2-6.5-3.3c-1.5-2-1.9-4.7-1.2-7.2c1.4-4.5,3.8-10.5,6.5-17.4l0.1-0.2
			c4.2-10.6,9-22.6,12.1-33.5c4-13.9,3.2-19,2.7-20.6l-0.2-0.5l-0.4-0.4c-33-28.7-54.2-68.3-59.6-111.5l-0.2-1.8h-5.2
			c-10.1,0-18.2-8.2-18.2-18.2v-58.6l0-0.1c-0.6-6.8-2.5-11.4-10.6-16.4c-25-15.3-40-42-40-71.3c0-46.1,37.5-83.6,83.6-83.6
			c40.4,0,75,28.8,82.2,68.6l0.5,2.7l2.4-1.2c25-13,53.2-19.8,81.5-19.8c54,0,114.7,32.2,144.3,76.6c19.1,28.6,23.3,59.9,11.9,88
			l-0.2,0.4l0,0.4c0.1,4.7,5.6,16.6,11.2,28.3c6.9,14.4,11.1,23.5,11.1,30.2c0,8.2-8.5,14.1-17.5,20.2c-2.9,2-7.2,5-9.1,6.8
			l-0.5,0.5l-0.1,0.7c-1,8.6-0.4,18.7,0.1,28.5c1,18.6,1.9,36.1-6.2,47.8c-12.3,17.8-25.8,21.2-45,21.2c-6.2,0-12.9-0.4-20.7-0.8
			c-10.8-0.6-23.1-1.3-38.1-1.3c-0.4,0-0.8,0-1.2-0.1c-0.3-0.1-0.6-0.1-0.7-0.1c-0.3,0-0.5,0-0.5,0l-0.2,0.1l-0.4,0.2
			c-2.6,1.4-4.7,7.1-7.7,20.9c-1.2,5.5-2.3,10.6-4,14.8c-2.9,7.2-7.4,10.8-13.3,10.8H-186.7z M-216.9,697.6
			c5.4,38.4,24.7,73.7,54.3,99.2c12.9,11.1,3.9,37.1-10.2,72.6c-0.5,1.2-0.9,2.3-1.3,3.4l-1.1,2.7h129.5l0.5-1.3
			c1.1-2.9,2.2-8,3-11.6l0-0.2c1.6-7.1,3.3-15.2,6.6-21.4c5.2-10.2,12.6-12.3,17.9-12.3c0.8,0,1.6,0,2.4,0.1l0.1,0h0.1
			c15.3,0,28.6,0.8,38.3,1.3c7.2,0.4,14.2,0.8,19.9,0.8c16.9,0,24-3.2,31.7-14.4c5-7.2,4.2-22.7,3.3-37.8l0-0.2
			c-0.6-11.2-1.2-22.7,0.2-33.1c1-6.9,8.1-11.7,16.3-17.4c2.9-2,7.4-5.1,9.6-7.2l0.9-0.8l-0.3-1.2c-1.3-4.7-6-14.6-9.1-21.2
			C86.1,677.8,80.4,665,84,656.3c12.4-29.8,1.3-56.5-10.1-73.7c-26.4-39.6-82.7-69.4-131-69.4c-29,0-57.5,7.8-82.3,22.6l-0.9,0.5
			l-0.1,1c-2.1,26.9-16.6,50.5-39.7,64.7c-8.1,5-10,9.6-10.6,16.4l0,0.1v58.6c0,10.1-8.2,18.2-18.2,18.2h-8.3L-216.9,697.6z
			 M-240.7,677.1c0,1.2,1,2.2,2.2,2.2h29.5c1.2,0,2.2-1,2.2-2.2v-16.4h-34V677.1z M-240.7,644.7h34v-18.6h-34V644.7z M-223.7,463
			c-37.3,0-67.6,30.3-67.6,67.6c0,23.7,12.1,45.3,32.3,57.7c9,5.5,14.2,11.8,16.7,20.3l0.4,1.4h36.4l0.4-1.4
			c2.5-8.5,7.6-14.7,16.7-20.3c20.3-12.4,32.3-34,32.3-57.7C-156.1,493.4-186.4,463-223.7,463z"/>
	</g>
	<g>
		<g>
			<g>
				<g>
					<path class="st1" d="M-188.3,555.8c-1.5,0-3-0.4-4.3-1.3c-1.8-1.1-3-2.9-3.5-5c-0.5-2.1-0.1-4.2,1.1-6c2-3.1,5.5-13,3-22.3
						c-1.6-6.1-5.6-10.7-12.1-14c-3.9-2-5.5-6.9-3.4-10.8c1.4-2.7,4.1-4.3,7.1-4.3c1.3,0,2.5,0.3,3.7,0.9
						c10.4,5.4,17.4,13.7,20.2,24.1c3.8,14-0.9,28.6-5,35C-183.1,554.4-185.6,555.8-188.3,555.8z"/>
				</g>
			</g>
		</g>
	</g>
	<g>
		<g>
			<g>
				<g>
					<path class="st1" d="M-223.7,428.1c-4.4,0-8-3.6-8-8v-28.5c0-4.4,3.6-8,8-8s8,3.6,8,8v28.5
						C-215.7,424.5-219.3,428.1-223.7,428.1z"/>
				</g>
			</g>
		</g>
	</g>
	<g>
		<g>
			<g>
				<g>
					<path class="st1" d="M-363.2,539.1c-4.4,0-8-3.6-8-8s3.6-8,8-8h28.5c4.4,0,8,3.6,8,8s-3.6,8-8,8H-363.2z"/>
				</g>
			</g>
		</g>
	</g>
	<g>
		<g>
			<g>
				<g>
					<path class="st1" d="M-279.2,443c-2.9,0-5.5-1.5-6.9-4l-14.2-24.7c-2.2-3.8-0.9-8.7,2.9-10.9c1.2-0.7,2.6-1.1,4-1.1
						c2.9,0,5.5,1.5,6.9,4l14.2,24.7c2.2,3.8,0.9,8.7-2.9,10.9C-276.4,442.6-277.8,443-279.2,443z"/>
				</g>
			</g>
		</g>
	</g>
	<g>
		<g>
			<g>
				<g>
					<path class="st1" d="M-319.8,483.6c-1.4,0-2.8-0.4-4-1.1l-24.7-14.3c-3.8-2.2-5.1-7.1-2.9-10.9c1.4-2.5,4.1-4,6.9-4
						c1.4,0,2.8,0.4,4,1.1l24.7,14.2c1.9,1.1,3.2,2.8,3.7,4.9c0.6,2.1,0.3,4.2-0.8,6.1C-314.3,482-317,483.6-319.8,483.6z"/>
				</g>
			</g>
		</g>
	</g>
	<g>
		<g>
			<g>
				<g>
					<path class="st1" d="M-127.6,483.6c-2.9,0-5.5-1.5-6.9-4c-1.1-1.9-1.4-4-0.8-6.1c0.6-2.1,1.9-3.8,3.7-4.9l24.7-14.2
						c1.2-0.7,2.6-1.1,4-1.1c2.9,0,5.5,1.5,6.9,4c2.2,3.8,0.9,8.7-2.9,10.9l-24.7,14.2C-124.8,483.2-126.2,483.6-127.6,483.6z"/>
				</g>
			</g>
		</g>
	</g>
	<g>
		<g>
			<g>
				<g>
					<path class="st1" d="M-344.5,608.8c-2.9,0-5.5-1.5-6.9-4c-1.1-1.9-1.4-4-0.8-6.1c0.6-2.1,1.9-3.8,3.7-4.9l24.7-14.3
						c1.2-0.7,2.6-1.1,4-1.1c2.9,0,5.5,1.5,6.9,4c1.1,1.9,1.4,4,0.8,6.1c-0.6,2.1-1.9,3.8-3.7,4.9l-24.7,14.3
						C-341.7,608.4-343.1,608.8-344.5,608.8z"/>
				</g>
			</g>
		</g>
	</g>
	<g>
		<g>
			<g>
				<g>
					<path class="st1" d="M-293.5,659.8c-1.4,0-2.8-0.4-4-1.1c-3.8-2.2-5.1-7.1-2.9-10.9l12.2-21.1c1.4-2.5,4.1-4,6.9-4
						c1.4,0,2.8,0.4,4,1.1c1.9,1.1,3.2,2.8,3.7,4.9c0.6,2.1,0.3,4.2-0.8,6.1l-12.2,21.1C-288,658.3-290.6,659.8-293.5,659.8z"/>
				</g>
			</g>
		</g>
	</g>
	<g>
		<g>
			<g>
				<g>
					<path class="st1" d="M-168.2,443c-1.4,0-2.8-0.4-4-1.1c-1.9-1.1-3.2-2.8-3.7-4.9c-0.6-2.1-0.3-4.2,0.8-6.1l14.2-24.7
						c1.4-2.5,4.1-4,6.9-4c1.4,0,2.8,0.4,4,1.1c3.8,2.2,5.1,7.1,2.9,10.9l-14.2,24.7C-162.7,441.4-165.4,443-168.2,443z"/>
				</g>
			</g>
		</g>
	</g>
</g>
</svg>
