<?xml version="1.0" encoding="utf-8"?>
<!-- Generator: Adobe Illustrator 19.0.1, SVG Export Plug-In . SVG Version: 6.00 Build 0)  -->
<svg version="1.1" id="Capa_1" xmlns="http://www.w3.org/2000/svg" xmlns:xlink="http://www.w3.org/1999/xlink" x="0px" y="0px"
	 viewBox="-381 381.6 512 512" style="enable-background:new -381 381.6 512 512;" xml:space="preserve">
<style type="text/css">
	.st0{fill:#ED6D34;}
	.st1{fill:#FFFFFF;}
</style>
<g>
	<circle class="st0" cx="-126.4" cy="689.4" r="92.1"/>
	<g>
		<path class="st0" d="M-184.7,749.3c-3.8-4.2-7.2-8.8-10.1-13.7h9.3v3.4C-185.6,742.5-185.3,745.9-184.7,749.3z"/>
	</g>
	<g>
		<path class="st0" d="M-204.2,711.6c-1.2-5.6-1.8-11.3-1.8-17c0-5.7,0.6-11.4,1.8-17h18.6v34H-204.2z"/>
	</g>
	<g>
		<path class="st0" d="M-194.8,653.6c2.9-4.9,6.3-9.5,10.1-13.7c-0.6,3.4-0.9,6.8-0.9,10.3v3.4H-194.8z"/>
	</g>
	<g>
		<path class="st0" d="M-161.6,653.6v-3.4c0-15.6,10-29.5,24.6-34.5v37.9H-161.6z"/>
	</g>
	<g>
		<path class="st0" d="M-113,653.6v-37.9c14.6,5.1,24.6,18.9,24.6,34.5v3.4H-113z"/>
	</g>
	<g>
		<rect x="-113" y="677.6" class="st0" width="24.6" height="34"/>
	</g>
	<g>
		<rect x="-161.6" y="677.6" class="st0" width="24.6" height="34"/>
	</g>
	<g>
		<path class="st0" d="M-137,773.6c-14.6-5.1-24.6-18.9-24.6-34.5v-3.4h24.6V773.6z"/>
	</g>
	<g>
		<path class="st0" d="M-113,735.6h24.6v3.4c0,15.6-10,29.5-24.6,34.5V735.6z"/>
	</g>
	<g>
		<path class="st0" d="M-65.3,749.3c0.6-3.4,0.9-6.8,0.9-10.3v-3.4h9.3C-58.1,740.5-61.5,745.1-65.3,749.3z"/>
	</g>
	<g>
		<path class="st0" d="M-64.4,711.6v-34h18.6c1.2,5.6,1.8,11.3,1.8,17c0,5.7-0.6,11.4-1.8,17H-64.4z"/>
	</g>
	<g>
		<path class="st0" d="M-64.4,653.6v-3.4c0-3.5-0.3-6.9-0.9-10.3c3.9,4.2,7.2,8.8,10.1,13.7H-64.4z"/>
	</g>
	<g>
		<path class="st1" d="M-333.2,891.6c-25.2,0-45.8-20.5-45.8-45.8v-18.2c0-4.4,3.6-8,8-8h14V575.1c0-25.1,20.4-45.5,45.5-45.5h43
			c4.4,0,8,3.6,8,8s-3.6,8-8,8h-43c-16.3,0-29.5,13.2-29.5,29.5v244.5h309.7c4.4,0,8,3.6,8,8s-3.6,8-8,8H-363v10.2
			c0,16.4,13.3,29.8,29.8,29.8H83.2c16.4,0,29.8-13.3,29.8-29.8v-10.2H61.5c-4.4,0-8-3.6-8-8s3.6-8,8-8H91V575.1
			c0-16.3-13.2-29.5-29.5-29.5H24c-4.4,0-8-3.6-8-8s3.6-8,8-8h37.5c25.1,0,45.5,20.4,45.5,45.5v244.5h14c4.4,0,8,3.6,8,8v18.2
			c0,25.2-20.5,45.8-45.8,45.8H-333.2z"/>
	</g>
	<g>
		<path class="st1" d="M31.4,501.3c-13.3,0-26.2-3.8-37.4-10.9c-3.1-2-4.5-5.9-3.2-9.4c1.1-3.2,4.2-5.3,7.5-5.3c0.3,0,0.6,0,0.9,0
			c1.4,0.2,2.8,0.2,4.2,0.2c0.9,0,1.7,0,2.6-0.1l4.3-0.3l-3.1-3.1c-7.9-8-12.8-19.6-12.8-30.3v-0.4c0-2,0.8-4,2.1-5.4l0.8-0.9
			l-0.4-1.2c-1.5-4.1-2.3-8.5-2.3-13c0-6.6,1.7-13,5-18.6c1.3-2.3,3.7-3.7,6.3-3.9c0.2,0,0.4,0,0.6,0c2.4,0,4.7,1.1,6.2,2.9
			c7.4,9.1,16.5,16.1,27.1,20.9l2.1,0.9l0.6-2.2c3.7-12.5,15.3-21.3,28.4-21.3c6.6,0,13.1,2.3,18.3,6.4l0.5,0.4H99
			c2.7,0,5.2,1.4,6.7,3.6c1.5,2.3,1.7,5.1,0.6,7.6l-5.6,12.8l0,1.2c0,16.8-6.5,33.8-17.8,46.6C70,493.3,51.7,501.3,31.4,501.3z
			 M12,428.3c1.5,4.3,4.3,7.9,8.1,10.4c2.9,2,4.3,5.7,3.2,9.1c-1,3-3.6,5.2-6.8,5.6l-3.1,0.3l1.6,2.7c4,6.6,9.6,10.4,15.3,10.4
			c3.4,0,6.5,2.2,7.6,5.4c1.1,3.2,0,6.8-2.6,8.9l-0.7,0.6l-5.3,4.1l6.7-0.5c19.2-1.4,30.8-11.4,37.1-19.5c7.4-9.5,11.8-22,11.8-33.6
			l-0.1-2.7c0-1.2,0.2-2.3,0.7-3.4l1.3-2.9l-2.1-0.7c-1.3-0.4-2.5-1.2-3.5-2.2c-2.5-2.7-6.1-4.3-9.9-4.3c-7.5,0-13.6,6.1-13.6,13.6
			c0,1.1,0.1,2.1,0.4,3.2c0.4,1.8,0.2,3.6-0.6,5.3c-1.4,2.8-4.2,4.5-7.3,4.5c-0.7,0-1.3-0.1-1.9-0.2c-12.1-3.1-23.2-8.5-33-16.2
			l-5.4-4.2L12,428.3z"/>
	</g>
	<g>
		<path class="st1" d="M13.5,702.2c-4.4,0-8-3.6-8-8s3.6-8,8-8h33.6c4.4,0,8,3.6,8,8s-3.6,8-8,8H13.5z"/>
	</g>
	<g>
		<path class="st1" d="M13.5,835.6c-4.4,0-8-3.6-8-8s3.6-8,8-8c4.4,0,8,3.6,8,8S17.9,835.6,13.5,835.6z"/>
	</g>
	<g>
		<path class="st1" d="M-65.4,571.8c-2.1,0-4.1-0.8-5.7-2.3c-1.5-1.5-2.3-3.5-2.3-5.7s0.8-4.1,2.3-5.7l39.3-39.3
			c1.5-1.5,3.5-2.3,5.7-2.3s4.1,0.8,5.7,2.3c3.1,3.1,3.1,8.2,0,11.3l-39.3,39.3C-61.3,571-63.3,571.8-65.4,571.8z"/>
	</g>
	<g>
		<path class="st1" d="M-125,795.6c-55.7,0-101-45.3-101-101s45.3-101,101-101s101,45.3,101,101S-69.3,795.6-125,795.6z M-117,778.9
			l2.5-0.7c17.7-4.8,30-20.9,30-39.2v-7.4H-117V778.9z M-165.6,739c0,18.3,12.4,34.4,30,39.2l2.5,0.7v-47.3h-32.6V739z M-68.4,739
			c0,5.5-0.8,10.9-2.3,16.1l-2.1,7l5.4-4.9c7.1-6.5,13-14.1,17.5-22.6l1.6-2.9h-20V739z M-200,734.6c4.5,8.5,10.4,16.1,17.5,22.6
			l5.4,4.9l-2.1-7c-1.6-5.2-2.3-10.6-2.3-16.1v-7.4h-20L-200,734.6z M-68.4,715.6h25.8l0.4-1.5c1.5-6.4,2.3-12.9,2.3-19.5
			c0-6.5-0.8-13.1-2.3-19.5l-0.4-1.5h-25.8V715.6z M-117,715.6h32.6v-42H-117V715.6z M-165.6,715.6h32.6v-42h-32.6V715.6z
			 M-207.7,675.2c-1.5,6.4-2.3,12.9-2.3,19.5c0,6.5,0.8,13.1,2.3,19.5l0.4,1.5h25.8v-42h-25.8L-207.7,675.2z M-70.8,634.1
			c1.6,5.2,2.3,10.6,2.3,16.1v7.4h20l-1.6-2.9c-4.5-8.5-10.4-16.1-17.5-22.6l-5.3-4.9L-70.8,634.1z M-117,657.6h32.6v-7.4
			c0-18.3-12.4-34.4-30-39.2l-2.5-0.7V657.6z M-135.5,611c-17.7,4.7-30,20.9-30,39.2v7.4h32.6v-47.3L-135.5,611z M-182.5,632.1
			c-7.1,6.5-13,14.1-17.5,22.6l-1.6,2.9h20v-7.4c0-5.5,0.8-10.9,2.3-16.1l2.1-7L-182.5,632.1z"/>
	</g>
	<g>
		<path class="st1" d="M-125,485.4c-4.4,0-8-3.6-8-8v-41.8h-2c-4.4,0-8-3.6-8-8c0-2.1,0.8-4.1,2.3-5.7c1.5-1.5,3.5-2.3,5.7-2.3h2
			v-4.7c0-17.3,14-31.3,31.3-31.3h3.5c4.4,0,8,3.6,8,8s-3.6,8-8,8h-3.5c-8.4,0-15.3,6.9-15.3,15.3v4.7h15.6c4.4,0,8,3.6,8,8
			s-3.6,8-8,8H-117v41.8C-117,481.8-120.6,485.4-125,485.4z"/>
	</g>
	<g>
		<path class="st1" d="M-146.8,863.6c-4.4,0-8-3.6-8-8s3.6-8,8-8h44.2c4.4,0,8,3.6,8,8s-3.6,8-8,8H-146.8z"/>
	</g>
	<g>
		<path class="st1" d="M-125,558.6c-4.4,0-8-3.6-8-8v-32c0-4.4,3.6-8,8-8s8,3.6,8,8v32C-117,555-120.6,558.6-125,558.6z"/>
	</g>
	<g>
		<path class="st1" d="M-185.9,570.5c-2.1,0-4.1-0.8-5.7-2.3l-26.7-26.7c-3.1-3.1-3.1-8.2,0-11.3c1.5-1.5,3.5-2.3,5.7-2.3
			c2.1,0,4.1,0.8,5.7,2.3l26.7,26.8c1.5,1.5,2.3,3.5,2.3,5.6c0,2.1-0.8,4.2-2.3,5.7C-181.8,569.7-183.8,570.5-185.9,570.5z"/>
	</g>
	<g>
		<path class="st1" d="M-226.1,443.1c-4.4,0-8-3.6-8-8v-6.2h-6.2c-4.4,0-8-3.6-8-8s3.6-8,8-8h6.2v-6.2c0-4.4,3.6-8,8-8s8,3.6,8,8
			v6.2h6.2c4.4,0,8,3.6,8,8s-3.6,8-8,8h-6.2v6.2C-218.1,439.5-221.7,443.1-226.1,443.1z"/>
	</g>
	<g>
		<path class="st1" d="M-296.8,501c-24.1,0-43.7-19.6-43.7-43.7c0-24.1,19.6-43.7,43.7-43.7c4.4,0,8,3.6,8,8s-3.6,8-8,8
			c-15.3,0-27.7,12.4-27.7,27.7c0,15.3,12.4,27.7,27.7,27.7c11.1,0,21.2-6.6,25.5-16.9l1.2-2.8h-16c-4.4,0-8-3.6-8-8s3.6-8,8-8h25
			c4.4,0,8,3.6,8,8C-253.1,481.4-272.7,501-296.8,501z"/>
	</g>
	<g>
		<path class="st1" d="M-294.7,702.2c-4.4,0-8-3.6-8-8s3.6-8,8-8h33.6c4.4,0,8,3.6,8,8s-3.6,8-8,8H-294.7z"/>
	</g>
</g>
</svg>
