<?xml version="1.0" encoding="utf-8"?>
<!-- Generator: Adobe Illustrator 19.0.1, SVG Export Plug-In . SVG Version: 6.00 Build 0)  -->
<svg version="1.1" id="Capa_1" xmlns="http://www.w3.org/2000/svg" xmlns:xlink="http://www.w3.org/1999/xlink" x="0px" y="0px"
	 viewBox="-381 381.6 512 512" style="enable-background:new -381 381.6 512 512;" xml:space="preserve">
<style type="text/css">
	.st0{fill:#ED6D34;}
	.st1{fill:#FFFFFF;}
</style>
<g>
	<polygon class="st0" points="27,540.4 21.8,540.2 -120.8,682.8 -180.6,623 -217.4,659.8 -277,719.4 -277,809.5 27,809.5 	"/>
	<path class="st1" d="M-161,433.6h72c5.5,0,10-4.5,10-10s-4.5-10-10-10h-72c-5.5,0-10,4.5-10,10S-166.5,433.6-161,433.6z"/>
	<path class="st1" d="M-125,835.4c-2.6,0-5.2,1.1-7.1,2.9s-2.9,4.4-2.9,7.1c0,2.6,1.1,5.2,2.9,7.1c1.9,1.9,4.4,2.9,7.1,2.9
		c2.6,0,5.2-1.1,7.1-2.9c1.9-1.9,2.9-4.4,2.9-7.1s-1.1-5.2-2.9-7.1C-119.8,836.4-122.4,835.4-125,835.4z"/>
	<g>
		<path class="st1" d="M-247.7,891.6c-20.5,0-37.3-16.7-37.3-37.3v-190l-0.7-0.6c-5.1-4.4-10.2-9-15.1-13.6l-1.4-1.3l-1.4,1.4
			c-8.3,8.5-15.9,17-22.6,25.3c-32.6,40.2-44.2,75.5-32,96.8c1.4,2.4,3.1,4.7,5.1,6.7c3.1,3.2,3,8.2-0.2,11.3
			c-1.5,1.4-3.5,2.2-5.6,2.2c-2.2,0-4.2-0.9-5.8-2.4c-2.9-3-5.4-6.3-7.4-9.8c-16-27.7-4.1-68.5,33.4-114.8c7-8.7,15-17.6,23.6-26.4
			l1.4-1.4l-1.4-1.4c-8.7-8.9-16.6-17.7-23.6-26.4c-37.5-46.4-49.4-87.1-33.4-114.8c12-20.8,38.4-31.9,76.3-31.9
			c2.8,0,5.7,0.1,8.7,0.2l2.1,0.1v-42.5c0-20.5,16.7-37.3,37.3-37.3H-2.3c9.9,0,19.3,3.9,26.3,10.9S35,410.9,35,420.9v42.5l2.1-0.1
			c2.8-0.1,5.7-0.2,8.4-0.2c38.1,0,64.5,11,76.6,31.9c11.7,20.3,8.6,47.7-9.1,79.4c-15.7,28.2-42.4,59.1-77.3,89.3l-0.7,0.6v131.5
			l1.9,0.1c3,0.1,6,0.2,8.8,0.2c31.9,0,53.5-8.3,62.5-23.9c10-17.4,2.5-40.5-5.7-56.9c-0.9-1.9-1.1-4.1-0.4-6.1c0.7-2,2.1-3.7,4-4.6
			c1.1-0.6,2.3-0.8,3.5-0.8c3.1,0,5.8,1.7,7.2,4.5c14.1,28.5,15.9,53.4,5.2,72c-12,20.8-38.5,31.9-76.6,31.9c-2.6,0-5.4-0.1-8.4-0.2
			l-2.1-0.1v42.5c0,20.5-16.7,37.3-37.3,37.3H-247.7z M-269,854.3c0,11.7,9.5,21.3,21.3,21.3H-2.3c11.7,0,21.3-9.5,21.3-21.3v-43.8
			l-1.8-0.2c-3.8-0.5-7.6-1-11.3-1.6c-56.4-8.9-123.2-34.5-188.1-72c-20.8-12-41-25-59.8-38.6l-1.4-1l-25.6,25.6v78.8h181.7
			c4.4,0,8,3.6,8,8s-3.6,8-8,8H-269V854.3z M-232,685.7l1.9,1.4c17.6,12.5,36.4,24.6,55.8,35.8c63.3,36.6,128.2,61.4,182.6,70.1
			c2.7,0.4,5.4,0.8,8.3,1.2l2.3,0.3V554.3l-46.3,46.3V644c0,4.4-3.6,8-8,8s-8-3.6-8-8v-27.4l-71.8,71.8c-1.5,1.5-3.5,2.3-5.7,2.3
			s-4.1-0.8-5.7-2.3l-54.1-54.1L-232,685.7z M-269,700.1l12.6-12.6l-1.8-1.4c-2.8-2.1-5.2-4-7.5-5.9l-3.2-2.6V700.1z M16.7,481.1
			c-2.9,0.4-5.6,0.8-8.3,1.2c-54.5,8.6-119.3,33.5-182.6,70.1c-34.6,20-66.2,41.9-94.1,65.3l-0.7,0.6V657l0.7,0.6
			c7,5.9,14.4,11.8,21.9,17.5l1.4,1.1l58.8-58.8c1.5-1.5,3.5-2.3,5.7-2.3s4.1,0.8,5.7,2.3l54.1,54.1l67.5-67.5h-30.1
			c-4.4,0-8-3.6-8-8s3.6-8,8-8h46.1l53.4-53.4c0.5-0.5,1.1-1,1.8-1.3l1-0.6v-51.8L16.7,481.1z M-288.4,635.3l-2.4,2.3l2.4,2.3
			l3.4,3.1v-10.8L-288.4,635.3z M45.7,479.1c-2.8,0-5.8,0.1-8.8,0.2l-1.9,0.1v163.6l3.4-3.1c28.6-26.7,50.4-53.5,62.9-77.5
			c12.8-24.6,15.2-45.1,7-59.3C99.2,487.3,77.6,479.1,45.7,479.1z M-295.7,479.1c-31.9,0-53.5,8.3-62.5,23.9
			c-12.3,21.2-0.6,56.5,32,96.8c6.7,8.3,14.3,16.8,22.6,25.3l1.4,1.4l1.4-1.3c4.9-4.6,10-9.2,15.1-13.6l0.7-0.6V479.4l-1.9-0.1
			C-289.9,479.2-292.8,479.1-295.7,479.1z M-269,597.5l3.2-2.6c25.4-20.1,53.5-39.1,83.5-56.4c62.3-36,126.8-61.1,181.7-70.9l-0.4-4
			H-269V597.5z M-247.7,399.6c-11.7,0-21.3,9.5-21.3,21.3v26.7H19v-26.7c0-11.7-9.5-21.3-21.3-21.3H-247.7z"/>
	</g>
</g>
</svg>
