<?xml version="1.0" encoding="utf-8"?>
<!-- Generator: Adobe Illustrator 19.0.1, SVG Export Plug-In . SVG Version: 6.00 Build 0)  -->
<svg version="1.1" id="圖層_1" xmlns="http://www.w3.org/2000/svg" xmlns:xlink="http://www.w3.org/1999/xlink" x="0px" y="0px"
	 viewBox="285.1 -256 451.7 512" style="enable-background:new 285.1 -256 451.7 512;" xml:space="preserve">
<style type="text/css">
	.st0{fill:#FFFFFF;}
</style>
<g>
	<g>
		<g>
			<path class="st0" d="M722.1-43.4L522.4-243.1c-11.8-11.7-30.8-11.6-42.5,0c-11.7,11.7-11.7,30.7,0,42.5L679.6-1
				c11.7,11.7,30.7,11.7,42.4,0C733.8-12.7,733.8-31.7,722.1-43.4z"/>
		</g>
	</g>
	<g>
		<g>
			<path class="st0" d="M465.1-173.1l-1.5,7.5c-10.6,53-36.3,103.3-71.1,144L501.1,87.1c40.8-34.8,90.4-61.2,143.4-71.8l7.5-1.5
				L465.1-173.1z"/>
		</g>
	</g>
	<g>
		<g>
			<path class="st0" d="M372.6,1l-74.3,74.2c-17.5,17.5-17.6,46,0,63.6l42.4,42.4c17.5,17.5,46,17.6,63.6,0l74.2-74.2L372.6,1z
				 M383.2,117.7c-5.9,5.9-15.4,5.9-21.2,0s-5.9-15.4,0-21.2l21.2-21.2c5.9-5.9,15.4-5.9,21.2,0c5.9,5.9,5.9,15.4,0,21.2
				L383.2,117.7z"/>
		</g>
	</g>
	<g>
		<g>
			<path class="st0" d="M541.3,189.3l20.4-20.4c17.6-17.6,17.6-46.1,0-63.6l-15.2-15.2c-8.4,5.6-16.4,11.7-24.2,18.3l18.1,18.1
				c5.8,5.8,5.9,15.3,0,21.2l-20.7,20.7l-30.5-29.5l-42.4,42.4l68.1,65.9c11.6,11.6,30.7,11.7,42.4,0c11.7-11.7,11.7-30.7,0-42.4
				L541.3,189.3z"/>
		</g>
	</g>
	<g>
		<g>
			<path class="st0" d="M601.9-256c-8.3,0-15,6.7-15,15v30c0,8.3,6.7,15,15,15c8.3,0,15-6.7,15-15v-30
				C616.9-249.3,610.2-256,601.9-256z"/>
		</g>
	</g>
	<g>
		<g>
			<path class="st0" d="M721.9-136h-30c-8.3,0-15,6.7-15,15s6.7,15,15,15h30c8.3,0,15-6.7,15-15S730.2-136,721.9-136z"/>
		</g>
	</g>
	<g>
		<g>
			<path class="st0" d="M702.5-221.6c-5.9-5.9-15.4-5.9-21.2,0l-30,30c-5.9,5.9-5.9,15.4,0,21.2s15.4,5.9,21.2,0l30-30
				C708.3-206.3,708.3-215.7,702.5-221.6z"/>
		</g>
	</g>
</g>
</svg>
