<?xml version="1.0" encoding="utf-8"?>
<!-- Generator: Adobe Illustrator 19.0.1, SVG Export Plug-In . SVG Version: 6.00 Build 0)  -->
<svg version="1.1" id="圖層_1" xmlns="http://www.w3.org/2000/svg" xmlns:xlink="http://www.w3.org/1999/xlink" x="0px" y="0px"
	 viewBox="-613.8 605.5 83.5 64.1" style="enable-background:new -613.8 605.5 83.5 64.1;" xml:space="preserve">
<style type="text/css">
	.st0{fill:#FFFFFF;}
	.st1{fill:#FFFFFF;stroke:#FFFFFF;stroke-width:2;stroke-linecap:round;stroke-linejoin:round;stroke-miterlimit:10;}
</style>
<g>
	<g>
		<path class="st0" d="M-532.8,628.1h-15.1v-20c0-1.4-1.2-2.6-2.6-2.6h-60.7c-1.4,0-2.6,1.2-2.6,2.6v44.4c0,1.4,1.2,2.6,2.6,2.6
			h17.5v11.8c0,1.4,1.2,2.6,2.6,2.6h20.5c1.4,0,2.6-1.2,2.6-2.6v-11.8h6.6v12c0,1.4,1.2,2.6,2.6,2.6h26.1c1.4,0,2.6-1.2,2.6-2.6
			v-36.4C-530.2,629.2-531.4,628.1-532.8,628.1z M-573.2,664.3h-15.3v-9.3h15.3V664.3z M-570.6,649.9h-20.5h-17.5v-39.2h55.5v17.4
			h-3.3V614h-48.9v32.6h43.9v3.3H-570.6z M-535.4,664.5h-20.9v-31.2h20.9L-535.4,664.5z"/>
		<rect x="-553" y="636.5" class="st0" width="14.3" height="24.8"/>
	</g>
</g>
<rect x="-596.9" y="664.9" class="st1" width="32.2" height="3.8"/>
</svg>
