<?xml version="1.0" encoding="utf-8"?>
<!-- Generator: Adobe Illustrator 19.0.1, SVG Export Plug-In . SVG Version: 6.00 Build 0)  -->
<svg version="1.1" id="Capa_1" xmlns="http://www.w3.org/2000/svg" xmlns:xlink="http://www.w3.org/1999/xlink" x="0px" y="0px"
	 viewBox="265.3 -256 491.4 512" style="enable-background:new 265.3 -256 491.4 512;" xml:space="preserve">
<style type="text/css">
	.st0{fill:#FFFFFF;}
</style>
<g>
	<path id="XMLID_49_" class="st0" d="M569.4,191.4v15c0,11.9-8.7,21.8-20.1,23.5l-3.7,13.6c-2,7.4-8.6,12.5-16.3,12.5h-36.6
		c-7.7,0-14.3-5.2-16.3-12.5l-3.6-13.6c-11.5-1.8-20.2-11.6-20.2-23.6v-15c0-8,6.4-14.4,14.4-14.4h88
		C562.9,177,569.4,183.4,569.4,191.4z M637.1-10.2c0,34-13.5,64.9-35.4,87.5c-16.6,17.3-27.4,39.3-31,62.8
		c-1.6,10.1-10.3,17.6-20.6,17.6h-78.3c-10.2,0-19.1-7.4-20.5-17.5c-3.7-23.5-14.5-45.8-31.2-63c-21.5-22.3-34.9-52.7-35.2-86.1
		C384.2-79,440-135.8,510.2-136.3C580.2-136.8,637.1-80.2,637.1-10.2z M525.2-86.6c0-7.8-6.3-14.2-14.2-14.2c-50.1,0-91,40.8-91,91
		c0,7.8,6.3,14.2,14.2,14.2c7.8,0,14.2-6.3,14.2-14.2c0-34.6,28.1-62.6,62.6-62.6C518.9-72.4,525.2-78.7,525.2-86.6z M511-177.7
		c7.8,0,14.2-6.3,14.2-14.2v-49.8c0-7.8-6.3-14.2-14.2-14.2s-14.2,6.3-14.2,14.2v49.8C496.8-184,503.2-177.7,511-177.7z M343.6-10.3
		c0-7.8-6.3-14.2-14.2-14.2h-49.8c-7.8,0-14.2,6.3-14.2,14.2c0,7.8,6.3,14.2,14.2,14.2h49.8C337.3,3.9,343.6-2.4,343.6-10.3z
		 M742.5-24.5h-49.8c-7.8,0-14.2,6.3-14.2,14.2c0,7.8,6.3,14.2,14.2,14.2h49.8c7.8,0,14.2-6.3,14.2-14.2
		C756.7-18.1,750.4-24.5,742.5-24.5z M372.6,108.1l-35.3,35.3c-5.6,5.6-5.6,14.5,0,20.1c2.7,2.7,6.4,4.1,10,4.1
		c3.6,0,7.3-1.4,10-4.1l35.3-35.3c5.6-5.6,5.6-14.5,0-20.1C387.1,102.5,378,102.5,372.6,108.1z M639.4-124.5c3.6,0,7.3-1.4,10-4.1
		l35.3-35.3c5.6-5.6,5.6-14.5,0-20.1c-5.6-5.6-14.5-5.6-20.1,0l-35.3,35.3c-5.6,5.6-5.6,14.5,0,20.1
		C632.2-125.9,635.7-124.5,639.4-124.5z M372.6-128.7c2.7,2.7,6.4,4.1,10,4.1c3.6,0,7.3-1.4,10-4.1c5.6-5.6,5.6-14.5,0-20.1
		l-35.3-35.3c-5.6-5.6-14.5-5.6-20.1,0c-5.6,5.6-5.6,14.5,0,20.1L372.6-128.7z M649.4,108.1c-5.6-5.6-14.5-5.6-20.1,0
		s-5.6,14.5,0,20.1l35.3,35.3c2.7,2.7,6.4,4.1,10,4.1c3.6,0,7.3-1.4,10-4.1c5.6-5.6,5.6-14.5,0-20.1L649.4,108.1z"/>
</g>
</svg>
