<?xml version="1.0" encoding="utf-8"?>
<!-- Generator: Adobe Illustrator 19.0.1, SVG Export Plug-In . SVG Version: 6.00 Build 0)  -->
<svg version="1.1" id="圖層_1" xmlns="http://www.w3.org/2000/svg" xmlns:xlink="http://www.w3.org/1999/xlink" x="0px" y="0px"
	 viewBox="-578.1 580.8 82.3 114.6" style="enable-background:new -578.1 580.8 82.3 114.6;" xml:space="preserve">
<style type="text/css">
	.st0{fill:#FFFFFF;}
</style>
<g>
	<path class="st0" d="M-576.1,648.7h12.3c1.1,0,2,0.9,2,2v42.7c0,1.1-0.9,2-2,2h-12.3c-1.1,0-2-0.9-2-2v-42.7
		C-578.1,649.6-577.3,648.7-576.1,648.7z"/>
	<path class="st0" d="M-508.4,643.2h-20.2v-14.1c0-5.8-4.7-10.5-10.5-10.5c0,0,0,0,0,0h-4.4c-1.7,0-3,1.3-3,3v13.7
		c-0.1,4.8-1.9,9.4-4.9,13l-3,2.1v39.9c0,1.1,0.9,2,2,2h41.6c5.4,0,9.9-3.9,10.8-9.2l4-25.4c0.3-1.7,0.2-3.4-0.2-5.1
		C-497.7,647-502.7,643.2-508.4,643.2z"/>
	<path class="st0" d="M-512.4,597.8l0.6,1.4l8.7-3.6c1-0.4,1.9-0.8,2.8-1.4c1.1-0.7,1.9-1.6,2.4-2.8c1.1-2.8-0.3-6-3.1-7.1
		c-0.3-0.1-0.7-0.2-1-0.3c-1.2-0.2-2.5,0-3.6,0.6c-0.4-1.1-1.1-2.1-2-2.9c-1.8-1.2-4.1-1.3-6-0.2c-0.9,0.6-1.7,1.4-2.1,2.4
		c-0.5,1.1-0.6,2.4-0.4,3.6c0.2,1,0.6,2,1,2.9C-514.3,593-512.4,597.8-512.4,597.8z"/>
	<path class="st0" d="M-546.2,602.9c1.8,1.9,5.5,5.6,5.5,5.6l1.1,1.1l6.6-6.7c0.7-0.7,1.4-1.5,2-2.3c0.7-1,1.1-2.2,1.1-3.4
		c-0.1-3-2.6-5.4-5.6-5.3c-0.3,0-0.7,0-1,0.1c-1.2,0.3-2.3,1-3.1,1.9c-0.8-0.9-1.9-1.5-3-1.9c-3-0.6-5.9,1.2-6.5,4.2
		c-0.1,0.3-0.1,0.7-0.1,1c0,1.2,0.4,2.4,1.1,3.4C-547.6,601.4-547,602.2-546.2,602.9z"/>
	<path class="st0" d="M-517,611.8c-1,0.5-1.8,1.2-2.4,2.1c-0.6,1.1-0.8,2.3-0.7,3.5c0.1,1,0.3,2,0.6,3c0.7,2.5,2,7.5,2,7.5l0.4,1.5
		l9-2.5c1-0.2,2-0.6,2.9-1c1.1-0.5,2-1.4,2.7-2.4c1.4-2.7,0.4-6-2.2-7.4c-0.3-0.2-0.6-0.3-1-0.4c-1.2-0.3-2.5-0.2-3.7,0.1
		c-0.3-1.2-0.8-2.3-1.6-3.2C-512.6,611.2-515,610.8-517,611.8z"/>
	<path class="st0" d="M-557.3,614.5c-1.2-2.8-4.4-4.1-7.2-3c-0.3,0.1-0.6,0.3-0.9,0.5c-1,0.8-1.8,1.8-2.2,3
		c-1.1-0.5-2.3-0.8-3.5-0.7c-3,0.5-5,3.3-4.5,6.3c0.1,0.3,0.1,0.7,0.3,1c0.5,1.1,1.3,2.1,2.3,2.8c0.9,0.6,1.8,1,2.8,1.4
		c2.4,1.1,7.1,3.2,7.1,3.2l1.4,0.6l3.7-8.6c0.4-0.9,0.8-1.9,1-2.9C-556.8,616.9-556.9,615.6-557.3,614.5z"/>
</g>
</svg>
