<?xml version="1.0" encoding="utf-8"?>
<!-- Generator: Adobe Illustrator 19.0.1, SVG Export Plug-In . SVG Version: 6.00 Build 0)  -->
<svg version="1.1" id="圖層_1" xmlns="http://www.w3.org/2000/svg" xmlns:xlink="http://www.w3.org/1999/xlink" x="0px" y="0px"
	 viewBox="0 0 260.2 224.4" style="enable-background:new 0 0 260.2 224.4;" xml:space="preserve">
<style type="text/css">
	.st0{fill:#BFBFBF;}
</style>
<g>
	<polygon class="st0" points="64.2,198.2 39.2,224.4 176.8,224.4 162.9,198.2 	"/>
	<polygon class="st0" points="197.1,26.2 221.9,0 83.3,0 97.2,26.2 	"/>
	<polygon class="st0" points="114.9,145.9 36.4,145.9 11.3,171.9 11.3,171.7 11.3,172 89.6,172 	"/>
	<path class="st0" d="M176.8,224.4L61.4,7.3C59.6,4,62,0,65.8,0h17.5l115.4,217.1c1.8,3.3-0.6,7.3-4.4,7.3
		C194.3,224.4,176.8,224.4,176.8,224.4z"/>
	<path class="st0" d="M249.1,50.9L143.3,161.4l12.1,22.7l103.4-108c1.5-1.5,1.8-3.8,0.8-5.6L249.1,50.9z"/>
	<path class="st0" d="M181.2,77h42.9l25.1-26.2h-42.7L181.2,77z M249.2,50.9L249.2,50.9L249.2,50.9L249.2,50.9z"/>
	<path class="st0" d="M39.2,224.4L231.5,25.3c1.5-1.5,1.8-3.8,0.8-5.7L221.9,0L29.5,199.1c-1.5,1.5-1.8,3.8-0.8,5.6L39.2,224.4z"/>
	<path class="st0" d="M11.3,172L116.6,62.7l-13.8-25.9L1.3,146.5c-1.4,1.5-1.7,3.8-0.7,5.6L11.3,172z"/>
</g>
</svg>
