<?xml version="1.0" encoding="utf-8"?>
<!-- Generator: Adobe Illustrator 19.0.1, SVG Export Plug-In . SVG Version: 6.00 Build 0)  -->
<svg version="1.1" id="圖層_2" xmlns="http://www.w3.org/2000/svg" xmlns:xlink="http://www.w3.org/1999/xlink" x="0px" y="0px"
	 viewBox="-415 428.6 1093.5 134.4" style="enable-background:new -415 428.6 1093.5 134.4;" xml:space="preserve">
<style type="text/css">
	.st0{fill:#FFFFFF;}
	.st1{opacity:0.64;fill:#FFFFFF;}
</style>
<g>
	<g>
		<path class="st0" d="M66,456.4h-43v-16.1H11.5v16.1h-40V468H66V456.4z M32.1,544l22.2-62.4H42.2L20,544h-1.6L-4,481.6H-16L6.4,544
			h-40.1v11.6H71.4V544H32.1z"/>
		<path class="st0" d="M299.1,527.6c10-21.1,11.3-41.5,11.1-52h5.1v-11.5h-30.1l12.8-24.1h-12.7l-14.2,26.7
			c-0.8,1.5-1.4,4.1-0.2,5.9c1.2,1.8,2.7,3,4.4,3h3.2c0,6.4,0.5,16.6,2.4,28.3c1.4,8.2,3.3,15.9,5.7,22.9
			c-5,9.7-12.1,19.4-22.1,27.9l8.1,7.3c8.1-6.9,14.4-14.4,19.4-22.1c4.6,9.3,10.3,17.1,17,23.1l8.3-7.1
			C309.1,548.3,303.2,538.2,299.1,527.6z M293.8,509.5c-3-13.8-3.6-26.6-3.7-33.9h8.6C298.8,482.7,298.1,495.3,293.8,509.5z
			 M254.5,538.8c1.7-1.4,3-3.2,3.8-5.2h11.5v-11.5h-12.4c-0.8-1.2-1.7-2.4-2.9-3.3l-7.1-5.6c-0.7-0.6-1.5-1-2.3-1.4v-2.4h17.7
			c2.6,0,4.8-2.1,4.8-4.8v-8.1c0-6.9-5.6-12.5-12.5-12.5h-9.9v-3.4H257c2.6,0,4.8-2.1,4.8-4.8v-9.7h6v-9.2h-6v-1.8
			c0-6.9-5.6-12.5-12.5-12.5h-4.1v-6.3h-10.4v6.3H224c-2.6,0-4.8,2.1-4.8,4.8v9.5h-7.1v9.2h7.1v2c0,6.9,5.6,12.5,12.5,12.5h3.1v3.4
			h-16.8c-2.6,0-4.8,2.1-4.8,4.8v8.1c0,6.9,5.6,12.5,12.5,12.5h9.1v2.8c-0.5,0.3-1,0.6-1.5,1l-7.1,5.6c-1.2,0.9-2.1,2-2.9,3.3h-13.7
			v11.5h12.7c0.8,2,2.1,3.8,3.8,5.2l4.5,3.5l-12.6,10l7.9,9.4l14.5-11.5l14.5,11.5l7.9-9.4l-12.6-10L254.5,538.8z M245.1,450.7h4.9
			c1.6,0,3,1.3,3,3v3.3h-7.9V450.7z M245.1,466.2h7.9v6.4h-7.9V466.2z M245.1,492.5h9.9c1.6,0,3,1.3,3,3v5.4h-12.9V492.5z
			 M227.9,450.7h6.8v6.2h-6.8V450.7z M230.9,472.5c-1.6,0-2.9-1.3-2.9-2.9v-3.4h6.8v6.4H230.9z M225.6,500.9c-1.6,0-3-1.3-3-3v-5.4
			h12v8.4H225.6z M248.6,531.3l-7.1,5.6c-0.7,0.6-1.6,0.6-2.4,0l-7.1-5.6c-0.7-0.6-1.1-1.5-1.1-2.5c0-1,0.4-1.9,1.1-2.5l7.1-5.6
			c0.7-0.6,1.6-0.6,2.4,0l7.1,5.6c0.7,0.6,1.1,1.5,1.1,2.5C249.7,529.8,249.3,530.7,248.6,531.3z"/>
		<path class="st0" d="M606.3,520.3l-6.6,17.4l0.1-29.9h14.3V497h-14.3l0.1-13.2h9.9v-10.9h-31.3v10.9h10l0.1,13.2h-14.4v10.7h14.5
			l0.1,30.7l-6.6-18.2h-10.3l11.6,24.5h-10.6v10.7h42.7v-10.7h-10.5l11.6-24.5H606.3z M594.2,442.3c-3.2,0-6.2,1.3-8.5,3.8
			l-18.8,22.7h14.9l12.4-15.7l12.4,15.7h14.9L602.7,446C600.4,443.6,597.4,442.3,594.2,442.3z M677,483.3c0-6.9-5.3-12.5-11.8-12.5
			h-6.2l19.6-24.7H665l-8.6,14.5v-21.3h-11.5v21.3l-8.6-14.5h-13.6l19.6,24.7h-14.7c-2.6,0-4.8,2.1-4.8,4.8v82.3h11.3v-28.1h31.6
			v14.9c0,0.1-0.2,0.2-0.2,0.3c0,0,0.1,0-1,1c-1,1-2.9,1.1-4.4,1c-7.5-0.5-9.6-1.3-10.2-1.7l-4.6,10.3c0.9,0.5,4.7,2.2,16.1,2.8
			c6.3,0.4,9.9-1.9,11.8-3.9c3.7-3.8,3.7-8.7,3.6-10V483.3z M665.7,518.6h-31.6v-12.9h31.6V518.6z M665.7,494.5h-31.6v-12.6h29.3
			c1.2,0,2.3,1.4,2.3,3V494.5z M649.8,545.2c0,0,0.1,0.1,0.2,0.1l0,0C650,545.3,649.9,545.2,649.8,545.2z"/>
		<path class="st0" d="M367.1,473h65.3v-11.5h-27.9v-20.1H393v20.1h-25.9V473z M413,543l18.3-62.4h-11.9l-17.8,60.8
			c-0.2,0.7-0.4,1.2-0.7,1.6h-2.5c-0.2-0.4-0.5-0.9-0.7-1.6L380,480.6h-11.9l18.2,62.4h-22v11.5H435V543H413z M360.1,440.3
			l-30.9,42.1v16.2l16-20.9v79.9h11.5v-94.9l17.1-22.4H360.1z"/>
		<path class="st0" d="M491.8,474.4v11.5h37.7l0,58.2c0,0-0.1,1.6-1.1,2.4c-1.1,0.9-3.6,1.1-6.8,0.4c-11.5-2.5-13.7-3.5-13.8-3.5
			c0,0-0.2,0-0.6,0.5l-4.7,9.3c0.8,0.7,1.9,1.6,17,5c2,0.4,3.9,0.7,5.7,0.7c3.7,0,7.8-1.9,10.3-3.9c4.6-3.8,5.5-10.4,5.5-10.9v-58.1
			h14.3v-11.5H491.8z M549.6,447.9H498v11.5h51.5V447.9z M446.6,511.8l18.4-17.5v63.3h11.5v-74.3l10.9-10.4v-15.1l-40.7,38.9V511.8z
			 M478,439.6l-29.5,26.3V481l44.4-41.4H478z"/>
		<path class="st0" d="M153.2,475.6v-14.8c0-1.3,0.7-2.5,1.7-2.9l39.6-6.3v-11.6l-43.4,6.7c-0.1,0-0.3,0-0.4,0.1
			c-5.3,1.4-9,6.4-9,12.1v45.5c0,0.1,0,0.2,0,0.2c0.4,8.3-0.4,31.8-8.7,40.7c-1.7,1.8-3.6,2.9-5.8,3.2v11.5
			c4.9-0.3,11.1-4.3,14.7-8.1c5.5-5.9,9-15.8,10.6-29.4c1-9.2,0.8-17,0.7-18.1V487h17.4v73.7h11.5V487H198v-11.5H153.2z
			 M113.7,505.3c0.4-3.5,0.5-5.8,0.4-6.3v-5.8l19.5-33.3h-13l-6.5,15.5V439h-11.5v34.3L96,459.9H83l19.7,30.5v8.7c0,0,0,0.1,0,0.1
			c0,0.3-1.3,36-19.5,53.7h14.5c7.3-10,11.4-22.6,13.7-33.2c3,3.9,6.2,8.7,8,13.2l10.8-3.5C125.8,518.1,114.3,505.9,113.7,505.3z"/>
	</g>
	<g>
		<polygon class="st0" points="-59.5,546.8 -78.5,546.8 -78.5,513 -86.9,513 -86.9,555.2 -78.5,555.2 -78.5,555.2 -59.5,555.2 		"/>
		<rect x="-211.1" y="457.5" class="st0" width="8.4" height="42.2"/>
		<polygon class="st0" points="-167.1,499.7 -177.6,478.8 -168,457.5 -176.4,457.5 -182,469.9 -188.3,457.5 -196.3,457.5 
			-185.8,478.4 -195.4,499.7 -187,499.7 -181.4,487.3 -175.2,499.7 		"/>
		<rect x="-160.8" y="457.5" class="st0" width="8.4" height="42.2"/>
		<polygon class="st0" points="-234.3,491.3 -234.3,457.5 -242.7,457.5 -242.7,499.7 -217.4,499.7 -217.4,491.3 		"/>
		<polygon class="st0" points="-129.1,457.5 -129.1,480.7 -137,457.5 -146,457.5 -146,499.7 -137.6,499.7 -137.6,475.3 
			-129.3,499.7 -120.7,499.7 -120.7,457.5 		"/>
		<rect x="-211.1" y="513" class="st0" width="8.4" height="42.2"/>
		<path class="st0" d="M-234.3,513h-8.4v42.2h8.4c9.3,0,16.9,0,16.9-8.7v-24.4C-217.4,513-225,513-234.3,513z M-224.9,544.9
			c0,4.5-2.6,4-9.4,4h0v-29.4h0c6.8,0,9.4-0.6,9.4,4V544.9z"/>
		<rect x="-165" y="513" class="st0" width="8.4" height="42.2"/>
		<path class="st0" d="M-101.3,555.2h8l-9.1-42.2h-12.4l-8,42.2h8.4l1.5-7.8h9.9L-101.3,555.2z M-111.2,539l3-15.8l3.4,15.8H-111.2z
			"/>
		<polygon class="st0" points="-124.9,513 -150.2,513 -150.2,521.4 -141.8,521.4 -141.8,555.2 -133.3,555.2 -133.3,521.4 
			-124.9,521.4 		"/>
		<path class="st0" d="M-187.7,555.9L-187.7,555.9c-0.1,0-0.2,0-0.3,0H-187.7z M-171.3,527.2v-5.7c0-7.4-4.5-9.1-13.7-9.1
			c-3.4,0-11.3,0.7-11.3,9.9v24.3c0,9.3,7.3,9.3,12.5,9.3c7.3,0,12.5-0.8,12.5-8.4v-14.9h-10.9v5h4.4v8.7c0,5-2.5,5.2-6.1,5.2
			c-3.6,0-4-0.6-4-5.2v-23.8c0-4.6,1-5.4,4.5-5.4c3.4,0,5.6,1.2,5.6,6.3v4H-171.3z"/>
	</g>
	<g>
		<polygon class="st0" points="-378.8,540.5 -392.9,555.3 -315.2,555.3 -323.1,540.5 		"/>
		<polygon class="st1" points="-378.8,540.5 -392.9,555.3 -315.2,555.3 -323.1,540.5 		"/>
		<polygon class="st0" points="-303.8,443.4 -289.7,428.6 -368,428.6 -360.1,443.4 		"/>
		<polygon class="st1" points="-303.8,443.4 -289.7,428.6 -368,428.6 -360.1,443.4 		"/>
		<polygon class="st0" points="-350.2,510.9 -394.5,510.9 -408.6,525.6 -408.7,525.6 -408.6,525.7 -364.4,525.7 		"/>
		<polygon class="st1" points="-350.2,510.9 -394.5,510.9 -408.6,525.6 -408.7,525.6 -408.6,525.7 -364.4,525.7 		"/>
		<path class="st0" d="M-315.2,555.3l-65.2-122.6c-1-1.9,0.4-4.1,2.5-4.1h9.9l65.2,122.6c1,1.9-0.4,4.1-2.5,4.1H-315.2z"/>
		<path class="st0" d="M-274.4,457.3l-59.8,62.4l6.8,12.8l58.4-61c0.8-0.9,1-2.1,0.4-3.2L-274.4,457.3z"/>
		<path class="st0" d="M-312.7,472.1h24.2l14.2-14.8h-24.1L-312.7,472.1z M-274.3,457.3L-274.3,457.3L-274.3,457.3L-274.3,457.3z"/>
		<path class="st1" d="M-312.7,472.1h24.2l14.2-14.8h-24.1L-312.7,472.1z M-274.3,457.3L-274.3,457.3L-274.3,457.3L-274.3,457.3z"/>
		<path class="st0" d="M-392.9,555.3l108.6-112.4c0.8-0.9,1-2.1,0.4-3.2l-5.9-11.1L-398.3,541c-0.8,0.9-1,2.1-0.4,3.2L-392.9,555.3z
			"/>
		<path class="st0" d="M-408.6,525.7l59.5-61.8l-7.8-14.6l-57.3,62c-0.8,0.9-1,2.1-0.4,3.1L-408.6,525.7z"/>
	</g>
</g>
</svg>
