<?xml version="1.0" encoding="utf-8"?>
<!-- Generator: Adobe Illustrator 19.0.1, SVG Export Plug-In . SVG Version: 6.00 Build 0)  -->
<svg version="1.1" id="圖層_2" xmlns="http://www.w3.org/2000/svg" xmlns:xlink="http://www.w3.org/1999/xlink" x="0px" y="0px"
	 viewBox="683.6 -111.8 1088.4 226.7" style="enable-background:new 683.6 -111.8 1088.4 226.7;" xml:space="preserve">
<style type="text/css">
	.st0{fill:#9D9997;}
	.st1{opacity:0.64;}
	.st2{clip-path:url(#SVGID_3_);}
	.st3{clip-path:url(#SVGID_4_);fill:url(#SVGID_5_);}
	.st4{clip-path:url(#SVGID_6_);}
	.st5{clip-path:url(#SVGID_7_);fill:url(#SVGID_8_);}
	.st6{clip-path:url(#SVGID_9_);}
	.st7{clip-path:url(#SVGID_10_);fill:url(#SVGID_11_);}
	.st8{fill:#EC6D34;}
	.st9{clip-path:url(#SVGID_12_);}
	.st10{clip-path:url(#SVGID_13_);fill:url(#SVGID_14_);}
</style>
<g>
	<g>
		<polygon class="st0" points="747.7,88.8 722.8,115 860.4,115 846.5,88.8 		"/>
		<g class="st1">
			<g>
				<defs>
					<rect id="SVGID_21_" x="722.8" y="88.8" width="137.6" height="26.2"/>
				</defs>
				<clipPath id="SVGID_3_">
					<use xlink:href="#SVGID_21_"  style="overflow:visible;"/>
				</clipPath>
				<g class="st2">
					<defs>
						<polygon id="SVGID_23_" points="747.7,88.8 722.8,115 860.4,115 846.5,88.8 						"/>
					</defs>
					<clipPath id="SVGID_4_">
						<use xlink:href="#SVGID_23_"  style="overflow:visible;"/>
					</clipPath>
					
						<linearGradient id="SVGID_5_" gradientUnits="userSpaceOnUse" x1="1173.3308" y1="15.42" x2="1181.0101" y2="15.42" gradientTransform="matrix(17.919 0 0 -17.919 -20302.1191 378.1678)">
						<stop  offset="0" style="stop-color:#231815"/>
						<stop  offset="2.019429e-02" style="stop-color:#332926"/>
						<stop  offset="7.884049e-02" style="stop-color:#5E5653"/>
						<stop  offset="0.1432" style="stop-color:#847E7C"/>
						<stop  offset="0.212" style="stop-color:#A5A1A0"/>
						<stop  offset="0.2864" style="stop-color:#C1BEBE"/>
						<stop  offset="0.3682" style="stop-color:#D8D6D6"/>
						<stop  offset="0.4603" style="stop-color:#EAE8E8"/>
						<stop  offset="0.5689" style="stop-color:#F6F5F5"/>
						<stop  offset="0.7098" style="stop-color:#FDFDFD"/>
						<stop  offset="1" style="stop-color:#FFFFFF"/>
					</linearGradient>
					<rect x="722.8" y="88.8" class="st3" width="137.6" height="26.2"/>
				</g>
			</g>
		</g>
		<polygon class="st0" points="880.7,-83.3 905.5,-109.5 766.9,-109.5 780.8,-83.3 		"/>
		<g class="st1">
			<g>
				<defs>
					<rect id="SVGID_26_" x="766.9" y="-109.5" width="138.6" height="26.2"/>
				</defs>
				<clipPath id="SVGID_6_">
					<use xlink:href="#SVGID_26_"  style="overflow:visible;"/>
				</clipPath>
				<g class="st4">
					<defs>
						<polygon id="SVGID_28_" points="880.7,-83.3 905.5,-109.5 766.9,-109.5 780.8,-83.3 						"/>
					</defs>
					<clipPath id="SVGID_7_">
						<use xlink:href="#SVGID_28_"  style="overflow:visible;"/>
					</clipPath>
					
						<linearGradient id="SVGID_8_" gradientUnits="userSpaceOnUse" x1="1175.6603" y1="25.0126" x2="1183.3398" y2="25.0126" gradientTransform="matrix(18.0528 0 0 -18.0528 -20457.0703 355.1339)">
						<stop  offset="0" style="stop-color:#FFFFFF"/>
						<stop  offset="0.2902" style="stop-color:#FDFDFD"/>
						<stop  offset="0.4311" style="stop-color:#F6F5F5"/>
						<stop  offset="0.5397" style="stop-color:#EAE8E8"/>
						<stop  offset="0.6318" style="stop-color:#D8D6D6"/>
						<stop  offset="0.7136" style="stop-color:#C1BEBE"/>
						<stop  offset="0.788" style="stop-color:#A5A1A0"/>
						<stop  offset="0.8568" style="stop-color:#847E7C"/>
						<stop  offset="0.9212" style="stop-color:#5E5653"/>
						<stop  offset="0.9798" style="stop-color:#332926"/>
						<stop  offset="1" style="stop-color:#231815"/>
					</linearGradient>
					<rect x="766.9" y="-109.5" class="st5" width="138.6" height="26.2"/>
				</g>
			</g>
		</g>
		<polygon class="st0" points="798.5,36.4 720,36.4 694.9,62.4 694.8,62.3 694.9,62.6 773.2,62.6 		"/>
		<g class="st1">
			<g>
				<defs>
					<rect id="SVGID_2_" x="694.8" y="36.4" width="103.6" height="26.2"/>
				</defs>
				<clipPath id="SVGID_9_">
					<use xlink:href="#SVGID_2_"  style="overflow:visible;"/>
				</clipPath>
				<g class="st6">
					<defs>
						<polygon id="SVGID_33_" points="798.5,36.4 720,36.4 694.9,62.4 694.8,62.3 694.9,62.6 773.2,62.6 						"/>
					</defs>
					<clipPath id="SVGID_10_">
						<use xlink:href="#SVGID_33_"  style="overflow:visible;"/>
					</clipPath>
					
						<linearGradient id="SVGID_11_" gradientUnits="userSpaceOnUse" x1="1162.4561" y1="17.0283" x2="1170.1356" y2="17.0283" gradientTransform="matrix(13.4947 0 0 -13.4947 -14992.1768 279.2784)">
						<stop  offset="0" style="stop-color:#231815"/>
						<stop  offset="2.019429e-02" style="stop-color:#332926"/>
						<stop  offset="7.884049e-02" style="stop-color:#5E5653"/>
						<stop  offset="0.1432" style="stop-color:#847E7C"/>
						<stop  offset="0.212" style="stop-color:#A5A1A0"/>
						<stop  offset="0.2864" style="stop-color:#C1BEBE"/>
						<stop  offset="0.3682" style="stop-color:#D8D6D6"/>
						<stop  offset="0.4603" style="stop-color:#EAE8E8"/>
						<stop  offset="0.5689" style="stop-color:#F6F5F5"/>
						<stop  offset="0.7098" style="stop-color:#FDFDFD"/>
						<stop  offset="1" style="stop-color:#FFFFFF"/>
					</linearGradient>
					<rect x="694.8" y="36.4" class="st7" width="103.6" height="26.2"/>
				</g>
			</g>
		</g>
		<path class="st0" d="M860.4,115L744.9-102.2c-1.8-3.3,0.6-7.3,4.4-7.3h17.6l115.5,217.2c1.8,3.3-0.6,7.3-4.4,7.3H860.4z"/>
		<path class="st8" d="M932.8-58.6L826.9,51.9L839,74.6l103.5-108c1.4-1.5,1.8-3.8,0.8-5.6L932.8-58.6z"/>
		<path class="st0" d="M864.8-32.5h42.9l25.1-26.2h-42.7L864.8-32.5z M932.8-58.6L932.8-58.6L932.8-58.6L932.8-58.6z"/>
		<g class="st1">
			<g>
				<defs>
					<rect id="SVGID_1_" x="864.8" y="-58.6" width="68" height="26.2"/>
				</defs>
				<clipPath id="SVGID_12_">
					<use xlink:href="#SVGID_1_"  style="overflow:visible;"/>
				</clipPath>
				<g class="st9">
					<defs>
						<path id="SVGID_38_" d="M864.8-32.5h42.9l25.1-26.2h-42.7L864.8-32.5z M932.8-58.6L932.8-58.6L932.8-58.6L932.8-58.6z"/>
					</defs>
					<clipPath id="SVGID_13_">
						<use xlink:href="#SVGID_38_"  style="overflow:visible;"/>
					</clipPath>
					
						<linearGradient id="SVGID_14_" gradientUnits="userSpaceOnUse" x1="1158.9691" y1="24.3809" x2="1166.6484" y2="24.3809" gradientTransform="matrix(8.8572 0 0 -8.8572 -9400.416 170.397)">
						<stop  offset="0" style="stop-color:#FFFFFF"/>
						<stop  offset="0.2902" style="stop-color:#FDFDFD"/>
						<stop  offset="0.4311" style="stop-color:#F6F5F5"/>
						<stop  offset="0.5397" style="stop-color:#EAE8E8"/>
						<stop  offset="0.6318" style="stop-color:#D8D6D6"/>
						<stop  offset="0.7136" style="stop-color:#C1BEBE"/>
						<stop  offset="0.788" style="stop-color:#A5A1A0"/>
						<stop  offset="0.8568" style="stop-color:#847E7C"/>
						<stop  offset="0.9212" style="stop-color:#5E5653"/>
						<stop  offset="0.9798" style="stop-color:#332926"/>
						<stop  offset="1" style="stop-color:#231815"/>
					</linearGradient>
					<rect x="864.8" y="-58.6" class="st10" width="68" height="26.2"/>
				</g>
			</g>
		</g>
		<path class="st8" d="M722.8,115L915.2-84.2c1.5-1.5,1.8-3.8,0.8-5.6l-10.4-19.6L713.1,89.7c-1.5,1.5-1.8,3.8-0.8,5.7L722.8,115z"
			/>
		<path class="st8" d="M694.9,62.6L800.2-46.9l-13.8-25.9L684.9,37c-1.4,1.5-1.7,3.8-0.7,5.6L694.9,62.6z"/>
	</g>
	<g>
		<path class="st0" d="M1098.4-89.7h-47.3v-17.7h-12.6v17.7h-44V-77h103.9V-89.7z M1061.2,6.6l24.4-68.6h-13.3l-24.4,68.6h-1.8
			L1021.5-62h-13.3l24.6,68.6h-44.1v12.8h115.6V6.6H1061.2z"/>
		<path class="st0" d="M1354.8-11.4c11-23.2,12.4-45.7,12.2-57.2h5.6v-12.6h-33l14.1-26.5h-14l-15.6,29.3c-0.9,1.6-1.5,4.5-0.2,6.5
			c1.3,2,3,3.3,4.8,3.3h3.5c0,7.1,0.5,18.3,2.7,31.2c1.5,9,3.6,17.5,6.3,25.2c-5.5,10.7-13.3,21.3-24.3,30.7l8.9,8
			c8.9-7.6,15.9-15.8,21.4-24.3c5.1,10.2,11.3,18.8,18.7,25.4l9.2-7.8C1365.7,11.3,1359.3,0.2,1354.8-11.4z M1348.9-31.4
			c-3.3-15.2-4-29.2-4-37.3h9.4C1354.4-60.8,1353.7-46.9,1348.9-31.4z M1305.8,0.8c1.9-1.5,3.3-3.5,4.2-5.7h12.6v-12.6h-13.7
			c-0.8-1.4-1.9-2.6-3.2-3.6l-7.8-6.2c-0.8-0.6-1.7-1.1-2.6-1.5v-2.7h19.4c2.9,0,5.2-2.4,5.2-5.2v-8.9c0-7.6-6.2-13.8-13.8-13.8
			h-10.9v-3.7h13c2.9,0,5.2-2.3,5.2-5.2V-79h6.6v-10.1h-6.6v-2c0-7.6-6.2-13.8-13.8-13.8h-4.5v-6.9H1284v6.9h-11.9
			c-2.9,0-5.2,2.3-5.2,5.2v10.5h-7.8V-79h7.8v2.2c0,7.6,6.2,13.7,13.7,13.7h3.4v3.7h-18.5c-2.9,0-5.2,2.3-5.2,5.2v8.9
			c0,7.6,6.2,13.7,13.7,13.7h10v3.1c-0.6,0.3-1.1,0.7-1.7,1.1l-7.8,6.2c-1.3,1-2.3,2.2-3.2,3.6h-15v12.6h14c0.9,2.2,2.3,4.2,4.2,5.7
			l4.9,3.9l-13.9,11l8.7,10.3l15.9-12.6l15.9,12.6l8.7-10.3l-13.8-11L1305.8,0.8z M1295.4-96h5.4c1.8,0,3.3,1.5,3.3,3.3v3.6h-8.7
			V-96z M1295.4-79h8.7v7h-8.7V-79z M1295.4-50.1h10.9c1.8,0,3.3,1.5,3.3,3.3v6h-14.2V-50.1L1295.4-50.1z M1276.5-96h7.5v6.8h-7.5
			V-96z M1279.8-72c-1.8,0-3.2-1.4-3.2-3.2V-79h7.5v7H1279.8z M1274-40.8c-1.8,0-3.2-1.5-3.2-3.2v-6h13.2v9.2H1274z M1299.2-7.4
			l-7.8,6.2c-0.8,0.6-1.8,0.6-2.6,0l-7.8-6.2c-0.8-0.6-1.2-1.6-1.2-2.8s0.4-2.1,1.2-2.8l7.8-6.2c0.8-0.6,1.8-0.6,2.6,0l7.8,6.2
			c0.8,0.6,1.2,1.6,1.2,2.8C1300.5-9,1300-8,1299.2-7.4z"/>
		<path class="st0" d="M1692.5-19.5l-7.2,19.1l0.2-32.9h15.7v-11.8h-15.7l0.1-14.5h10.8v-12H1662v12h11l0.1,14.5h-15.8v11.8h15.9
			l0.2,33.8l-7.2-20h-11.4l12.7,27h-11.6v11.8h47V7.5h-11.6l12.7-27L1692.5-19.5L1692.5-19.5z M1679.2-105.3c-3.5,0-6.8,1.5-9.3,4.2
			l-20.7,25h16.4l13.6-17.2l13.6,17.2h16.4l-20.7-25C1686.1-103.8,1682.8-105.3,1679.2-105.3z M1770.3-60.1c0-7.6-5.8-13.7-13-13.7
			h-6.8L1772-101h-14.9l-9.5,15.9v-23.5H1735v23.5l-9.5-15.9h-14.9l21.5,27.2h-16.2c-2.9,0-5.2,2.3-5.2,5.2v90.5h12.4V-9h34.8V7.3
			c0,0.1-0.2,0.2-0.2,0.4c0,0,0.1-0.1-1.1,1.1c-1.1,1.1-3.2,1.2-4.8,1.1c-8.2-0.5-10.6-1.5-11.2-1.8l-5,11.3c1,0.5,5.2,2.4,17.7,3.1
			c6.9,0.4,10.9-2.1,13-4.2c4-4.1,4.1-9.6,4-11L1770.3-60.1L1770.3-60.1z M1757.9-21.3h-34.8v-14.2h34.8V-21.3z M1757.9-47.8h-34.8
			v-13.9h32.3c1.4,0,2.5,1.5,2.5,3.2V-47.8z M1740.3,7.9c0,0,0.1,0.1,0.2,0.2l0,0C1740.6,8,1740.5,7.9,1740.3,7.9z"/>
		<path class="st0" d="M1429.5-71.5h71.8v-12.6h-30.6v-22.1H1458v22.1h-28.5V-71.5z M1480,5.5l20.1-68.6H1487l-19.6,66.8
			c-0.2,0.8-0.5,1.3-0.7,1.8h-2.8c-0.3-0.5-0.5-1-0.7-1.8l-19.5-66.8h-13l20,68.6h-24.2v12.6h77.7V5.5H1480z M1421.8-107.5l-34,46.3
			v17.8l17.6-23v87.9h12.6V-82.9l18.8-24.6L1421.8-107.5L1421.8-107.5z"/>
		<path class="st0" d="M1566.7-69.9v12.6h41.5v64c0,0-0.1,1.7-1.2,2.6c-1.3,1-4,1.2-7.5,0.4c-12.6-2.8-15.1-3.8-15.2-3.9
			c0,0-0.2,0-0.7,0.6l-5.1,10.2c0.9,0.8,2.1,1.8,18.7,5.5c2.2,0.5,4.3,0.7,6.2,0.7c4.1,0,8.6-2.1,11.3-4.2c5-4.1,6.1-11.4,6-12
			v-63.9h15.7v-12.6L1566.7-69.9L1566.7-69.9z M1630.2-99h-56.7v12.6h56.7V-99z M1516.9-28.8l20.2-19.3v69.6h12.6v-81.7l11.9-11.4
			v-16.6l-44.8,42.7V-28.8z M1551.5-108.2L1519-79.3v16.7l48.8-45.5H1551.5z"/>
		<path class="st0" d="M1194.3-68.7V-85c0-1.5,0.8-2.8,1.9-3.1l43.5-6.9v-12.8l-47.7,7.3c-0.1,0-0.3,0.1-0.4,0.1
			c-5.8,1.5-9.9,7-9.9,13.3v50c0,0.1,0,0.2,0,0.2c0.4,9.1-0.5,34.9-9.6,44.7c-1.9,2-3.9,3.1-6.4,3.5V24c5.4-0.4,12.3-4.8,16.2-9
			c6-6.5,9.9-17.3,11.6-32.3c1.1-10.2,0.8-18.7,0.8-19.9V-56h19.1v81h12.6v-81h17.5v-12.6L1194.3-68.7L1194.3-68.7z M1150.9-36
			c0.4-3.9,0.5-6.4,0.5-7v-6.3l21.4-36.7h-14.3l-7.1,17v-39.9h-12.6v37.7l-7.4-14.8h-14.3l21.7,33.5v9.6c0,0.1,0,0.1,0,0.1
			c0,0.4-1.5,39.5-21.4,59h15.9c8-11,12.6-24.9,15.1-36.5c3.3,4.3,6.8,9.6,8.8,14.5l11.9-3.8C1164.2-21.9,1151.6-35.3,1150.9-36z"/>
	</g>
	<g>
		<rect x="1035.3" y="62.9" class="st0" width="9.8" height="48.9"/>
		<polygon class="st0" points="1086.2,111.8 1074.1,87.6 1085.2,62.9 1075.4,62.9 1068.9,77.3 1061.7,62.9 1052.5,62.9 1064.5,87.1 
			1053.4,111.8 1063.2,111.8 1069.7,97.4 1076.9,111.8 		"/>
		<rect x="1093.5" y="62.9" class="st0" width="9.8" height="48.9"/>
		<rect x="1198.6" y="62.9" class="st0" width="9.8" height="48.9"/>
		<path class="st0" d="M1171.7,62.9h-9.8v48.9h9.8c10.8,0,19.5,0,19.5-10.1V73.5C1191.2,62.9,1182.5,62.9,1171.7,62.9z M1182.6,99.8
			c0,5.3-3,4.6-10.9,4.6h0V70.3h0c7.9,0,10.9-0.7,10.9,4.6V99.8z"/>
		<rect x="1251.9" y="62.9" class="st0" width="9.8" height="48.9"/>
		<polygon class="st0" points="1008.5,102 1008.5,62.9 998.7,62.9 998.7,111.8 1028,111.8 1028,102 		"/>
		<polygon class="st0" points="1374,102 1352,102 1352,62.9 1342.2,62.9 1342.2,111.8 1352,111.8 1352,111.8 1374,111.8 		"/>
		<path class="st0" d="M1325.6,111.8h9.3l-10.6-48.9H1310l-9.3,48.9h9.8l1.7-9h11.4L1325.6,111.8z M1314.1,93l3.5-18.3l4,18.3
			H1314.1z"/>
		<polygon class="st0" points="1298.3,62.9 1269,62.9 1269,72.7 1278.7,72.7 1278.7,111.8 1288.5,111.8 1288.5,72.7 1298.3,72.7 		
			"/>
		<polygon class="st0" points="1130.2,62.9 1130.2,89.8 1121,62.9 1110.6,62.9 1110.6,111.8 1120.4,111.8 1120.4,83.6 1129.9,111.8 
			1139.9,111.8 1139.9,62.9 		"/>
		<path class="st0" d="M1225.6,112.5L1225.6,112.5c-0.1,0-0.2,0-0.3,0H1225.6z M1244.5,79.3v-6.6c0-8.6-5.3-10.5-15.8-10.5
			c-3.9,0-13,0.8-13,11.5v28.1c0,10.7,8.4,10.7,14.4,10.7c8.4,0,14.4-1,14.4-9.8V85.5h-12.7v5.8h5.1v10c0,5.8-2.9,6.1-7.1,6.1
			c-4.2,0-4.6-0.7-4.6-6.1V73.7c0-5.3,1.2-6.2,5.2-6.2c3.9,0,6.4,1.3,6.4,7.3v4.6L1244.5,79.3L1244.5,79.3z"/>
	</g>
</g>
</svg>
