<?xml version="1.0" encoding="utf-8"?>
<!-- Generator: Adobe Illustrator 19.0.1, SVG Export Plug-In . SVG Version: 6.00 Build 0)  -->
<svg version="1.1" id="圖層_2" xmlns="http://www.w3.org/2000/svg" xmlns:xlink="http://www.w3.org/1999/xlink" x="0px" y="0px"
	 viewBox="-417.4 472.9 1093.5 134.4" style="enable-background:new -417.4 472.9 1093.5 134.4;" xml:space="preserve">
<style type="text/css">
	.st0{fill:#9D9997;}
	.st1{opacity:0.64;fill:url(#SVGID_1_);}
	.st2{opacity:0.64;fill:url(#SVGID_2_);}
	.st3{opacity:0.64;fill:url(#SVGID_3_);}
	.st4{fill:#EC6D34;}
	.st5{opacity:0.64;fill:url(#SVGID_4_);}
</style>
<g>
	<g>
		<path class="st0" d="M63.6,500.7h-43v-16.1H9.1v16.1h-40v11.6h94.5V500.7z M29.7,588.3l22.2-62.4H39.9l-22.2,62.4h-1.6l-22.4-62.4
			h-12.1L4,588.3h-40.1v11.6H69v-11.6H29.7z"/>
		<path class="st0" d="M296.8,571.9c10-21.1,11.3-41.5,11.1-52h5.1v-11.5h-30.1l12.8-24.1H283L268.9,511c-0.8,1.5-1.4,4.1-0.2,5.9
			c1.2,1.8,2.7,3,4.4,3h3.2c0,6.4,0.5,16.6,2.4,28.3c1.4,8.2,3.3,15.9,5.7,22.9c-5,9.7-12.1,19.4-22.1,27.9l8.1,7.3
			c8.1-6.9,14.4-14.4,19.4-22.1c4.6,9.3,10.3,17.1,17,23.1l8.3-7.1C306.7,592.6,300.8,582.5,296.8,571.9z M291.5,553.8
			c-3-13.8-3.6-26.6-3.7-33.9h8.6C296.4,527,295.8,539.7,291.5,553.8z M252.2,583.1c1.7-1.4,3-3.2,3.8-5.2h11.5v-11.5h-12.4
			c-0.8-1.2-1.7-2.4-2.9-3.3l-7.1-5.6c-0.7-0.6-1.5-1-2.3-1.4v-2.4h17.7c2.6,0,4.8-2.1,4.8-4.8v-8.1c0-6.9-5.6-12.5-12.5-12.5h-9.9
			V525h11.9c2.6,0,4.8-2.1,4.8-4.8v-9.7h6v-9.2h-6v-1.8c0-6.9-5.6-12.5-12.5-12.5h-4.1v-6.3h-10.4v6.3h-10.8c-2.6,0-4.8,2.1-4.8,4.8
			v9.5h-7.1v9.2h7.1v2c0,6.9,5.6,12.5,12.5,12.5h3.1v3.4h-16.8c-2.6,0-4.8,2.1-4.8,4.8v8.1c0,6.9,5.6,12.5,12.5,12.5h9.1v2.8
			c-0.5,0.3-1,0.6-1.5,1l-7.1,5.6c-1.2,0.9-2.1,2-2.9,3.3h-13.7v11.5H220c0.8,2,2.1,3.8,3.8,5.2l4.5,3.5l-12.6,10l7.9,9.4l14.5-11.5
			l14.5,11.5l7.9-9.4l-12.6-10L252.2,583.1z M242.8,495h4.9c1.6,0,3,1.3,3,3v3.3h-7.9V495z M242.8,510.5h7.9v6.4h-7.9V510.5z
			 M242.8,536.8h9.9c1.6,0,3,1.3,3,3v5.4h-12.9V536.8z M225.6,495h6.8v6.2h-6.8V495z M228.5,516.9c-1.6,0-2.9-1.3-2.9-2.9v-3.4h6.8
			v6.4H228.5z M223.3,545.2c-1.6,0-3-1.3-3-3v-5.4h12v8.4H223.3z M246.3,575.6l-7.1,5.6c-0.7,0.6-1.6,0.6-2.4,0l-7.1-5.6
			c-0.7-0.6-1.1-1.5-1.1-2.5c0-1,0.4-1.9,1.1-2.5l7.1-5.6c0.7-0.6,1.6-0.6,2.4,0l7.1,5.6c0.7,0.6,1.1,1.5,1.1,2.5
			C247.4,574.2,247,575.1,246.3,575.6z"/>
		<path class="st0" d="M603.9,564.6l-6.6,17.4l0.1-29.9h14.3v-10.7h-14.3l0.1-13.2h9.9v-10.9h-31.3v10.9h10l0.1,13.2h-14.4v10.7
			h14.5l0.1,30.7l-6.6-18.2h-10.3l11.6,24.5h-10.6v10.7h42.7v-10.7h-10.5l11.6-24.5H603.9z M591.8,486.6c-3.2,0-6.2,1.3-8.5,3.8
			l-18.8,22.7h14.9l12.4-15.7l12.4,15.7h14.9l-18.8-22.7C598.1,487.9,595,486.6,591.8,486.6z M674.6,527.7c0-6.9-5.3-12.5-11.8-12.5
			h-6.2l19.6-24.7h-13.6l-8.6,14.5v-21.3h-11.5v21.3l-8.6-14.5h-13.6l19.6,24.7h-14.7c-2.6,0-4.8,2.1-4.8,4.8v82.3h11.3v-28.1h31.6
			V589c0,0.1-0.2,0.2-0.2,0.3c0,0,0.1,0-1,1c-1,1-2.9,1.1-4.4,1c-7.5-0.5-9.6-1.3-10.2-1.7l-4.6,10.3c0.9,0.5,4.7,2.2,16.1,2.8
			c6.3,0.4,9.9-1.9,11.8-3.9c3.7-3.8,3.7-8.7,3.6-10V527.7z M663.3,562.9h-31.6v-12.9h31.6V562.9z M663.3,538.9h-31.6v-12.6h29.3
			c1.2,0,2.3,1.4,2.3,3V538.9z M647.4,589.5c0,0,0.1,0.1,0.2,0.1l0,0C647.6,589.6,647.6,589.6,647.4,589.5z"/>
		<path class="st0" d="M364.7,517.4h65.3v-11.5h-27.9v-20.1h-11.5v20.1h-25.9V517.4z M410.6,587.4l18.3-62.4h-11.9l-17.8,60.8
			c-0.2,0.7-0.4,1.2-0.7,1.6h-2.5c-0.2-0.4-0.5-0.9-0.7-1.6L377.7,525h-11.9l18.2,62.4h-22v11.5h70.6v-11.5H410.6z M357.7,484.6
			l-30.9,42.1v16.2l16-20.9v79.9h11.5V507l17.1-22.4H357.7z"/>
		<path class="st0" d="M489.5,518.7v11.5h37.7l0,58.2c0,0-0.1,1.6-1.1,2.4c-1.1,0.9-3.6,1.1-6.8,0.4c-11.5-2.5-13.7-3.5-13.8-3.5
			c0,0-0.2,0-0.6,0.5l-4.7,9.3c0.8,0.7,1.9,1.6,17,5c2,0.4,3.9,0.7,5.7,0.7c3.7,0,7.8-1.9,10.3-3.9c4.6-3.8,5.5-10.4,5.5-10.9v-58.1
			h14.3v-11.5H489.5z M547.2,492.3h-51.5v11.5h51.5V492.3z M444.2,556.1l18.4-17.5v63.3h11.5v-74.3l10.9-10.4v-15.1L444.2,541V556.1
			z M475.7,483.9l-29.5,26.3v15.2l44.4-41.4H475.7z"/>
		<path class="st0" d="M150.8,519.9V505c0-1.3,0.7-2.5,1.7-2.9l39.6-6.3v-11.6l-43.4,6.7c-0.1,0-0.3,0-0.4,0.1
			c-5.3,1.4-9,6.4-9,12.1v45.5c0,0.1,0,0.2,0,0.2c0.4,8.3-0.4,31.8-8.7,40.7c-1.7,1.8-3.6,2.9-5.8,3.2v11.5
			c4.9-0.3,11.1-4.3,14.7-8.1c5.5-5.9,9-15.8,10.6-29.4c1-9.2,0.8-17,0.7-18.1v-17.1h17.4v73.7h11.5v-73.7h15.9v-11.5H150.8z
			 M111.4,549.6c0.4-3.5,0.5-5.8,0.4-6.3v-5.8l19.5-33.3h-13l-6.5,15.5v-36.3h-11.5v34.3l-6.7-13.5h-13l19.7,30.5v8.7
			c0,0,0,0.1,0,0.1c0,0.3-1.3,36-19.5,53.7h14.5c7.3-10,11.4-22.6,13.7-33.2c3,3.9,6.2,8.7,8,13.2l10.8-3.5
			C123.4,562.4,111.9,550.2,111.4,549.6z"/>
	</g>
	<g>
		<polygon class="st0" points="-61.8,591.1 -80.8,591.1 -80.8,557.3 -89.3,557.3 -89.3,599.6 -80.8,599.6 -80.8,599.6 -61.8,599.6 
					"/>
		<rect x="-213.4" y="501.8" class="st0" width="8.4" height="42.2"/>
		<polygon class="st0" points="-169.5,544 -179.9,523.1 -170.3,501.8 -178.8,501.8 -184.4,514.3 -190.6,501.8 -198.6,501.8 
			-188.2,522.7 -197.8,544 -189.3,544 -183.7,531.6 -177.5,544 		"/>
		<rect x="-163.2" y="501.8" class="st0" width="8.4" height="42.2"/>
		<polygon class="st0" points="-236.6,535.6 -236.6,501.8 -245.1,501.8 -245.1,544 -219.8,544 -219.8,535.6 		"/>
		<polygon class="st0" points="-131.5,501.8 -131.5,525 -139.4,501.8 -148.4,501.8 -148.4,544 -139.9,544 -139.9,519.7 -131.7,544 
			-123,544 -123,501.8 		"/>
		<rect x="-213.4" y="557.3" class="st0" width="8.4" height="42.2"/>
		<path class="st0" d="M-236.6,557.3h-8.4v42.2h8.4c9.3,0,16.9,0,16.9-8.7v-24.4C-219.8,557.3-227.3,557.3-236.6,557.3z
			 M-227.2,589.2c0,4.5-2.6,4-9.4,4h0v-29.4h0c6.8,0,9.4-0.6,9.4,4V589.2z"/>
		<rect x="-167.4" y="557.3" class="st0" width="8.4" height="42.2"/>
		<path class="st0" d="M-103.6,599.6h8l-9.1-42.2h-12.4l-8,42.2h8.4l1.5-7.8h9.9L-103.6,599.6z M-113.6,583.3l3-15.8l3.4,15.8
			H-113.6z"/>
		<polygon class="st0" points="-127.2,557.3 -152.6,557.3 -152.6,565.8 -144.1,565.8 -144.1,599.6 -135.7,599.6 -135.7,565.8 
			-127.2,565.8 		"/>
		<path class="st0" d="M-190,600.2L-190,600.2c-0.1,0-0.2,0-0.3,0H-190z M-173.7,571.5v-5.7c0-7.4-4.5-9.1-13.7-9.1
			c-3.4,0-11.3,0.7-11.3,9.9v24.3c0,9.3,7.3,9.3,12.5,9.3c7.3,0,12.5-0.8,12.5-8.4v-14.9h-10.9v5h4.4v8.7c0,5-2.5,5.2-6.1,5.2
			c-3.6,0-4-0.6-4-5.2v-23.8c0-4.6,1-5.4,4.5-5.4c3.4,0,5.6,1.2,5.6,6.3v4H-173.7z"/>
	</g>
	<g>
		<polygon class="st0" points="-381.2,584.8 -395.2,599.6 -317.6,599.6 -325.4,584.8 		"/>
		<linearGradient id="SVGID_1_" gradientUnits="userSpaceOnUse" x1="-395.2385" y1="592.2366" x2="-317.5707" y2="592.2366">
			<stop  offset="0" style="stop-color:#000000"/>
			<stop  offset="4.216921e-02" style="stop-color:#262626"/>
			<stop  offset="9.946948e-02" style="stop-color:#535353"/>
			<stop  offset="0.1625" style="stop-color:#7C7C7C"/>
			<stop  offset="0.2297" style="stop-color:#A0A0A0"/>
			<stop  offset="0.3024" style="stop-color:#BEBEBE"/>
			<stop  offset="0.3823" style="stop-color:#D6D6D6"/>
			<stop  offset="0.4724" style="stop-color:#E8E8E8"/>
			<stop  offset="0.5786" style="stop-color:#F5F5F5"/>
			<stop  offset="0.7163" style="stop-color:#FDFDFD"/>
			<stop  offset="1" style="stop-color:#FFFFFF"/>
		</linearGradient>
		<polygon class="st1" points="-381.2,584.8 -395.2,599.6 -317.6,599.6 -325.4,584.8 		"/>
		<polygon class="st0" points="-306.1,487.7 -292.1,472.9 -370.3,472.9 -362.5,487.7 		"/>
		<linearGradient id="SVGID_2_" gradientUnits="userSpaceOnUse" x1="-370.3467" y1="480.3299" x2="-292.099" y2="480.3299">
			<stop  offset="0" style="stop-color:#FFFFFF"/>
			<stop  offset="0.2837" style="stop-color:#FDFDFD"/>
			<stop  offset="0.4214" style="stop-color:#F5F5F5"/>
			<stop  offset="0.5276" style="stop-color:#E8E8E8"/>
			<stop  offset="0.6177" style="stop-color:#D6D6D6"/>
			<stop  offset="0.6976" style="stop-color:#BEBEBE"/>
			<stop  offset="0.7703" style="stop-color:#A0A0A0"/>
			<stop  offset="0.8375" style="stop-color:#7C7C7C"/>
			<stop  offset="0.9005" style="stop-color:#535353"/>
			<stop  offset="0.9578" style="stop-color:#262626"/>
			<stop  offset="1" style="stop-color:#000000"/>
		</linearGradient>
		<polygon class="st2" points="-306.1,487.7 -292.1,472.9 -370.3,472.9 -362.5,487.7 		"/>
		<polygon class="st0" points="-352.5,555.3 -396.8,555.3 -411,570 -411,569.9 -411,570.1 -366.8,570.1 		"/>
		<linearGradient id="SVGID_3_" gradientUnits="userSpaceOnUse" x1="-411.0231" y1="562.6772" x2="-352.532" y2="562.6772">
			<stop  offset="0" style="stop-color:#000000"/>
			<stop  offset="4.216921e-02" style="stop-color:#262626"/>
			<stop  offset="9.946948e-02" style="stop-color:#535353"/>
			<stop  offset="0.1625" style="stop-color:#7C7C7C"/>
			<stop  offset="0.2297" style="stop-color:#A0A0A0"/>
			<stop  offset="0.3024" style="stop-color:#BEBEBE"/>
			<stop  offset="0.3823" style="stop-color:#D6D6D6"/>
			<stop  offset="0.4724" style="stop-color:#E8E8E8"/>
			<stop  offset="0.5786" style="stop-color:#F5F5F5"/>
			<stop  offset="0.7163" style="stop-color:#FDFDFD"/>
			<stop  offset="1" style="stop-color:#FFFFFF"/>
		</linearGradient>
		<polygon class="st3" points="-352.5,555.3 -396.8,555.3 -411,570 -411,569.9 -411,570.1 -366.8,570.1 		"/>
		<path class="st0" d="M-317.6,599.6l-65.2-122.6c-1-1.9,0.4-4.1,2.5-4.1h9.9l65.2,122.6c1,1.9-0.4,4.1-2.5,4.1H-317.6z"/>
		<path class="st4" d="M-276.7,501.6l-59.8,62.4l6.8,12.8l58.4-61c0.8-0.9,1-2.1,0.4-3.2L-276.7,501.6z"/>
		<path class="st0" d="M-315.1,516.4h24.2l14.2-14.8h-24.1L-315.1,516.4z M-276.7,501.6L-276.7,501.6L-276.7,501.6L-276.7,501.6z"/>
		<linearGradient id="SVGID_4_" gradientUnits="userSpaceOnUse" x1="-315.0773" y1="509.0383" x2="-276.6861" y2="509.0383">
			<stop  offset="0" style="stop-color:#FFFFFF"/>
			<stop  offset="0.2837" style="stop-color:#FDFDFD"/>
			<stop  offset="0.4214" style="stop-color:#F5F5F5"/>
			<stop  offset="0.5276" style="stop-color:#E8E8E8"/>
			<stop  offset="0.6177" style="stop-color:#D6D6D6"/>
			<stop  offset="0.6976" style="stop-color:#BEBEBE"/>
			<stop  offset="0.7703" style="stop-color:#A0A0A0"/>
			<stop  offset="0.8375" style="stop-color:#7C7C7C"/>
			<stop  offset="0.9005" style="stop-color:#535353"/>
			<stop  offset="0.9578" style="stop-color:#262626"/>
			<stop  offset="1" style="stop-color:#000000"/>
		</linearGradient>
		<path class="st5" d="M-315.1,516.4h24.2l14.2-14.8h-24.1L-315.1,516.4z M-276.7,501.6L-276.7,501.6L-276.7,501.6L-276.7,501.6z"/>
		<path class="st4" d="M-395.2,599.6l108.6-112.4c0.8-0.9,1-2.1,0.4-3.2l-5.9-11.1l-108.6,112.4c-0.8,0.9-1,2.1-0.4,3.2
			L-395.2,599.6z"/>
		<path class="st4" d="M-411,570.1l59.5-61.8l-7.8-14.6l-57.3,62c-0.8,0.9-1,2.1-0.4,3.1L-411,570.1z"/>
	</g>
</g>
</svg>
