<?xml version="1.0" encoding="utf-8"?>
<!-- Generator: Adobe Illustrator 19.0.1, SVG Export Plug-In . SVG Version: 6.00 Build 0)  -->
<svg version="1.1" id="圖層_1" xmlns="http://www.w3.org/2000/svg" xmlns:xlink="http://www.w3.org/1999/xlink" x="0px" y="0px"
	 viewBox="0 0 59.9 43.1" style="enable-background:new 0 0 59.9 43.1;" xml:space="preserve">
<style type="text/css">
	.st0{clip-path:url(#SVGID_2_);fill:#9F9A98;}
	.st1{clip-path:url(#SVGID_2_);}
	.st2{clip-path:url(#SVGID_4_);fill:#9F9A98;}
	.st3{opacity:0.64;clip-path:url(#SVGID_4_);}
	.st4{clip-path:url(#SVGID_6_);}
	.st5{clip-path:url(#SVGID_8_);fill:url(#SVGID_9_);}
	.st6{clip-path:url(#SVGID_11_);}
	.st7{clip-path:url(#SVGID_13_);fill:url(#SVGID_14_);}
	.st8{clip-path:url(#SVGID_16_);}
	.st9{clip-path:url(#SVGID_18_);fill:url(#SVGID_19_);}
	.st10{clip-path:url(#SVGID_4_);fill:#ED6D34;}
	.st11{clip-path:url(#SVGID_21_);}
	.st12{clip-path:url(#SVGID_23_);fill:url(#SVGID_24_);}
</style>
<g>
	<defs>
		<rect id="SVGID_1_" width="59.9" height="43.1"/>
	</defs>
	<clipPath id="SVGID_2_">
		<use xlink:href="#SVGID_1_"  style="overflow:visible;"/>
	</clipPath>
	<rect x="5.8" y="35.1" class="st0" width="1.6" height="7.8"/>
	<polygon class="st0" points="12.2,35.1 11.2,37.4 10.1,35.1 8.6,35.1 10.5,39 8.7,42.9 10.3,42.9 11.3,40.6 12.5,42.9 14,42.9 
		12,39.1 13.8,35.1 	"/>
	<rect x="15.1" y="35.1" class="st0" width="1.6" height="7.8"/>
	<rect x="31.9" y="35.1" class="st0" width="1.6" height="7.8"/>
	<g class="st1">
		<defs>
			<rect id="SVGID_3_" y="0" width="59.9" height="43.1"/>
		</defs>
		<clipPath id="SVGID_4_">
			<use xlink:href="#SVGID_3_"  style="overflow:visible;"/>
		</clipPath>
		<path class="st2" d="M27.6,35.1H26v7.8h1.6c1.7,0,3.1,0,3.1-1.6v-4.5C30.7,35.1,29.3,35.1,27.6,35.1 M29.3,41
			c0,0.8-0.5,0.7-1.7,0.7h0v-5.4h0c1.3,0,1.7-0.1,1.7,0.7V41z"/>
		<rect x="40.4" y="35.1" class="st2" width="1.6" height="7.8"/>
		<polygon class="st2" points="1.6,41.4 1.6,35.1 0,35.1 0,42.9 4.7,42.9 4.7,41.4 		"/>
		<polygon class="st2" points="56.3,41.4 56.3,35.1 54.8,35.1 54.8,42.9 59.9,42.9 59.9,41.4 		"/>
		<path class="st2" d="M52.1,42.9h1.5l-1.7-7.8h-2.3l-1.5,7.8h1.6l0.3-1.4h1.8L52.1,42.9z M50.3,39.9l0.6-2.9l0.6,2.9H50.3z"/>
		<polygon class="st2" points="47.8,35.1 43.1,35.1 43.1,36.7 44.7,36.7 44.7,42.9 46.2,42.9 46.2,36.7 47.8,36.7 		"/>
		<polygon class="st2" points="21,35.1 21,39.4 19.5,35.1 17.8,35.1 17.8,42.9 19.4,42.9 19.4,38.4 20.9,42.9 22.5,42.9 22.5,35.1 
					"/>
		<path class="st2" d="M36.2,43.1L36.2,43.1C36.2,43.1,36.2,43.1,36.2,43.1L36.2,43.1z M39.2,37.8v-1.1c0-1.4-0.8-1.7-2.5-1.7
			c-0.6,0-2.1,0.1-2.1,1.8v4.5c0,1.7,1.3,1.7,2.3,1.7c1.3,0,2.3-0.2,2.3-1.6v-2.8h-2v0.9H38v1.6c0,0.9-0.5,1-1.1,1
			c-0.7,0-0.7-0.1-0.7-1v-4.4c0-0.9,0.2-1,0.8-1c0.6,0,1,0.2,1,1.2v0.7H39.2z"/>
		<polygon class="st2" points="20.8,25.8 17.6,29.2 35.5,29.2 33.7,25.8 		"/>
		<g class="st3">
			<g>
				<defs>
					<rect id="SVGID_5_" x="17.6" y="25.8" width="17.9" height="3.4"/>
				</defs>
				<clipPath id="SVGID_6_">
					<use xlink:href="#SVGID_5_"  style="overflow:visible;"/>
				</clipPath>
				<g class="st4">
					<defs>
						<polygon id="SVGID_7_" points="20.8,25.8 17.6,29.2 35.5,29.2 33.7,25.8 						"/>
					</defs>
					<clipPath id="SVGID_8_">
						<use xlink:href="#SVGID_7_"  style="overflow:visible;"/>
					</clipPath>
					
						<linearGradient id="SVGID_9_" gradientUnits="userSpaceOnUse" x1="2.831379e-05" y1="43.0597" x2="1" y2="43.0597" gradientTransform="matrix(17.919 0 0 -17.919 17.5995 799.11)">
						<stop  offset="0" style="stop-color:#000000"/>
						<stop  offset="4.217100e-02" style="stop-color:#4C4948"/>
						<stop  offset="9.947062e-02" style="stop-color:#787778"/>
						<stop  offset="0.1625" style="stop-color:#9D9D9D"/>
						<stop  offset="0.2297" style="stop-color:#BABBBB"/>
						<stop  offset="0.3024" style="stop-color:#D1D2D3"/>
						<stop  offset="0.3823" style="stop-color:#E3E4E4"/>
						<stop  offset="0.4724" style="stop-color:#F1F1F1"/>
						<stop  offset="0.5786" style="stop-color:#F9FAFA"/>
						<stop  offset="0.7163" style="stop-color:#FEFEFE"/>
						<stop  offset="1" style="stop-color:#FFFFFF"/>
					</linearGradient>
					<rect x="17.6" y="25.8" class="st5" width="17.9" height="3.4"/>
				</g>
			</g>
		</g>
		<polygon class="st2" points="38.2,3.4 41.4,0 23.3,0 25.2,3.4 		"/>
		<g class="st3">
			<g>
				<defs>
					<rect id="SVGID_10_" x="23.3" y="0" width="18.1" height="3.4"/>
				</defs>
				<clipPath id="SVGID_11_">
					<use xlink:href="#SVGID_10_"  style="overflow:visible;"/>
				</clipPath>
				<g class="st6">
					<defs>
						<polygon id="SVGID_12_" points="38.2,3.4 41.4,0 23.3,0 25.2,3.4 						"/>
					</defs>
					<clipPath id="SVGID_13_">
						<use xlink:href="#SVGID_12_"  style="overflow:visible;"/>
					</clipPath>
					
						<linearGradient id="SVGID_14_" gradientUnits="userSpaceOnUse" x1="-2.165905e-05" y1="43.0597" x2="1" y2="43.0597" gradientTransform="matrix(18.0528 0 0 -18.0528 23.3424 779.0532)">
						<stop  offset="0" style="stop-color:#FFFFFF"/>
						<stop  offset="0.2837" style="stop-color:#FEFEFE"/>
						<stop  offset="0.4214" style="stop-color:#F9FAFA"/>
						<stop  offset="0.5276" style="stop-color:#F1F1F1"/>
						<stop  offset="0.6177" style="stop-color:#E3E4E4"/>
						<stop  offset="0.6976" style="stop-color:#D1D2D3"/>
						<stop  offset="0.7703" style="stop-color:#BABBBB"/>
						<stop  offset="0.8375" style="stop-color:#9D9D9D"/>
						<stop  offset="0.9005" style="stop-color:#787778"/>
						<stop  offset="0.9578" style="stop-color:#4C4948"/>
						<stop  offset="1" style="stop-color:#000000"/>
					</linearGradient>
					<rect x="23.3" y="0" class="st7" width="18.1" height="3.4"/>
				</g>
			</g>
		</g>
		<polygon class="st2" points="27.5,19 17.2,19 14,22.4 14,22.4 14,22.4 24.2,22.4 		"/>
		<g class="st3">
			<g>
				<defs>
					<rect id="SVGID_15_" x="14" y="19" width="13.5" height="3.4"/>
				</defs>
				<clipPath id="SVGID_16_">
					<use xlink:href="#SVGID_15_"  style="overflow:visible;"/>
				</clipPath>
				<g class="st8">
					<defs>
						<polygon id="SVGID_17_" points="27.5,19 17.2,19 14,22.4 14,22.4 14,22.4 24.2,22.4 						"/>
					</defs>
					<clipPath id="SVGID_18_">
						<use xlink:href="#SVGID_17_"  style="overflow:visible;"/>
					</clipPath>
					
						<linearGradient id="SVGID_19_" gradientUnits="userSpaceOnUse" x1="-5.858567e-05" y1="43.0597" x2="1" y2="43.0597" gradientTransform="matrix(13.4947 0 0 -13.4947 13.9578 601.7813)">
						<stop  offset="0" style="stop-color:#000000"/>
						<stop  offset="4.217100e-02" style="stop-color:#4C4948"/>
						<stop  offset="9.947062e-02" style="stop-color:#787778"/>
						<stop  offset="0.1625" style="stop-color:#9D9D9D"/>
						<stop  offset="0.2297" style="stop-color:#BABBBB"/>
						<stop  offset="0.3024" style="stop-color:#D1D2D3"/>
						<stop  offset="0.3823" style="stop-color:#E3E4E4"/>
						<stop  offset="0.4724" style="stop-color:#F1F1F1"/>
						<stop  offset="0.5786" style="stop-color:#F9FAFA"/>
						<stop  offset="0.7163" style="stop-color:#FEFEFE"/>
						<stop  offset="1" style="stop-color:#FFFFFF"/>
					</linearGradient>
					<rect x="14" y="19" class="st9" width="13.5" height="3.4"/>
				</g>
			</g>
		</g>
		<path class="st2" d="M35.5,29.2L20.5,1c-0.2-0.4,0.1-1,0.6-1h2.3l15,28.3c0.2,0.4-0.1,0.9-0.6,0.9H35.5z"/>
		<path class="st10" d="M44.9,6.6L31.2,21l1.6,3L46.2,9.9c0.2-0.2,0.2-0.5,0.1-0.7L44.9,6.6z"/>
		<path class="st2" d="M36.1,10h5.6l3.3-3.4h-5.6L36.1,10z M44.9,6.6L44.9,6.6L44.9,6.6L44.9,6.6z"/>
		<g class="st3">
			<g>
				<defs>
					<rect id="SVGID_20_" x="36.1" y="6.6" width="8.9" height="3.4"/>
				</defs>
				<clipPath id="SVGID_21_">
					<use xlink:href="#SVGID_20_"  style="overflow:visible;"/>
				</clipPath>
				<g class="st11">
					<defs>
						<path id="SVGID_22_" d="M36.1,10h5.6l3.3-3.4h-5.6L36.1,10z M45,6.6L45,6.6L45,6.6L45,6.6z"/>
					</defs>
					<clipPath id="SVGID_23_">
						<use xlink:href="#SVGID_22_"  style="overflow:visible;"/>
					</clipPath>
					
						<linearGradient id="SVGID_24_" gradientUnits="userSpaceOnUse" x1="2.368786e-05" y1="43.0597" x2="1" y2="43.0597" gradientTransform="matrix(8.8572 0 0 -8.8572 36.0938 389.7171)">
						<stop  offset="0" style="stop-color:#FFFFFF"/>
						<stop  offset="0.2837" style="stop-color:#FEFEFE"/>
						<stop  offset="0.4214" style="stop-color:#F9FAFA"/>
						<stop  offset="0.5276" style="stop-color:#F1F1F1"/>
						<stop  offset="0.6177" style="stop-color:#E3E4E4"/>
						<stop  offset="0.6976" style="stop-color:#D1D2D3"/>
						<stop  offset="0.7703" style="stop-color:#BABBBB"/>
						<stop  offset="0.8375" style="stop-color:#9D9D9D"/>
						<stop  offset="0.9005" style="stop-color:#787778"/>
						<stop  offset="0.9578" style="stop-color:#4C4948"/>
						<stop  offset="1" style="stop-color:#000000"/>
					</linearGradient>
					<rect x="36.1" y="6.6" class="st12" width="8.9" height="3.4"/>
				</g>
			</g>
		</g>
		<path class="st10" d="M17.6,29.2L42.7,3.3c0.2-0.2,0.2-0.5,0.1-0.7L41.4,0L16.3,25.9c-0.2,0.2-0.2,0.5-0.1,0.7L17.6,29.2z"/>
		<path class="st10" d="M14,22.4L27.7,8.2l-1.8-3.4L12.7,19.1c-0.2,0.2-0.2,0.5-0.1,0.7L14,22.4z"/>
	</g>
</g>
</svg>
