<?xml version="1.0" encoding="utf-8"?>
<!-- Generator: Adobe Illustrator 19.0.1, SVG Export Plug-In . SVG Version: 6.00 Build 0)  -->
<svg version="1.1" id="Layer_1" xmlns="http://www.w3.org/2000/svg" xmlns:xlink="http://www.w3.org/1999/xlink" x="0px" y="0px"
	 viewBox="-362.6 400 475.2 475.2" style="enable-background:new -362.6 400 475.2 475.2;" xml:space="preserve">
<style type="text/css">
	.st0{opacity:0.61;fill:#FFFFFF;}
	.st1{fill:#ED6D34;}
	.st2{display:none;}
	.st3{display:inline;}
</style>
<g>
	<circle class="st0" cx="-125" cy="637.6" r="237.6"/>
	<polygon class="st1" points="-154.7,586 -65.3,637.6 -154.7,689.2 	"/>
</g>
<g class="st2">
	<g class="st3">
		<path d="M96.6,509.6C62.4,450.5,7.3,408.1-58.8,390.4c-66-17.7-135-8.6-194.2,25.6c-59.2,34.2-101.5,89.4-119.2,155.4
			c-17.7,66-8.6,135,25.6,194.2c34.2,59.2,89.4,101.5,155.4,119.2c22,5.9,44.4,8.8,66.6,8.8c44.3,0,88.1-11.6,127.5-34.4
			c59.2-34.2,101.5-89.4,119.2-155.4C139.9,637.8,130.8,568.8,96.6,509.6z M96.4,696.9C80.6,756.1,42.6,805.5-10.4,836.1
			c-53,30.6-114.8,38.7-174,22.9c-59.1-15.8-108.6-53.8-139.2-106.8c-30.6-53-38.7-114.8-22.9-174c15.8-59.1,53.8-108.6,106.8-139.2
			c35.3-20.4,74.5-30.8,114.2-30.8c19.9,0,40,2.6,59.7,7.9C-6.5,432,42.9,469.9,73.5,523C104.1,576,112.3,637.8,96.4,696.9z"/>
	</g>
</g>
</svg>
