<?xml version="1.0" encoding="utf-8"?>
<!-- Generator: Adobe Illustrator 19.0.1, SVG Export Plug-In . SVG Version: 6.00 Build 0)  -->
<svg version="1.1" id="圖層_1" xmlns="http://www.w3.org/2000/svg" xmlns:xlink="http://www.w3.org/1999/xlink" x="0px" y="0px"
	 viewBox="-423.1 613.2 398.1 51.5" style="enable-background:new -423.1 613.2 398.1 51.5;" xml:space="preserve">
<style type="text/css">
	.st0{enable-background:new    ;}
	.st1{fill:#FFFFFF;}
</style>
<g class="st0">
	<path class="st1" d="M-379.3,664.7c-1.1-1.6-2.1-3.2-3-4.9c-0.4,0.8-0.9,1.6-1.5,2.5c-0.6,0.9-1.1,1.7-1.6,2.3h-8.7
		c0.1-0.2,0.2-0.3,0.3-0.5c0.1-0.2,0.2-0.3,0.3-0.5l-11.4,0.1c-0.2-0.1-0.6-0.3-1-0.5c-0.4-0.3-0.8-0.5-1-0.7
		c-0.1,0.1-0.3,0.2-0.6,0.3c-0.3,0.2-0.6,0.3-0.9,0.5c-0.3,0.2-0.7,0.3-1,0.5c-0.3,0.2-0.6,0.3-0.9,0.4h-12.8
		c1.5-0.6,3.1-1.3,4.7-2.1c1.6-0.8,3.1-1.6,4.5-2.5c-0.5-0.3-1.1-0.6-1.7-1s-1.2-0.8-1.8-1.2c-0.8-0.5-1.2-1.2-1.3-2.2
		c0-1,0.3-1.8,1-2.6h-5v-4.5h8c0.3-0.3,0.6-0.8,0.9-1.3c0.3-0.5,0.6-1,0.8-1.4h-4.2c-0.9,0-1.7-0.3-2.4-0.8
		c-0.8-0.7-1.3-1.5-1.3-2.6v-3.5c0-1.1,0.3-2,1-2.6c0.7-0.6,1.6-0.9,2.6-0.9h6.6V633h-5c-1.3,0-2.4-0.3-3.3-0.9
		c-0.4-0.3-0.8-0.7-1-1.2c-0.3-0.5-0.4-1.2-0.4-1.9V627h-2.4v-4.3h2.4v-2.5c0-1.1,0.4-1.9,1.1-2.6c0.7-0.6,1.5-0.9,2.5-0.9h6.1v-3.2
		h7.5v3.2h5.6c1.4,0,2.5,0.4,3.3,1.2c0.7,0.8,1,1.7,1,2.9v1.8h2.1v4.3h-2.1v2.4c0,0.9-0.2,1.7-0.7,2.3c-0.7,0.9-1.7,1.3-3.1,1.3
		h-6.1v2.3h6.4c1.4,0,2.4,0.3,3.2,1c0.7,0.7,1,1.6,1,2.7v2.7c0,1.2-0.3,2.2-0.9,2.8c-0.7,0.8-1.8,1.2-3.4,1.2h-7.6
		c-0.2,0.3-0.4,0.8-0.8,1.3c-0.3,0.5-0.6,1-0.9,1.4h14.9v4.5h-4.6c-0.9,2.6-2.5,4.7-4.9,6.4c1.3,0.7,2.5,1.3,3.8,1.8
		c1.3,0.6,2.6,1.1,4,1.6c1.2-1.5,2.3-3.2,3.4-5.1c1.1-1.8,2-3.7,2.8-5.5c-1-2.6-1.9-5.2-2.8-7.9c-0.9-2.7-1.7-5.4-2.4-8.2h7.4
		c0.3,2.1,0.9,4.1,1.6,6c0.2-0.9,0.5-2,0.7-3.1c0.2-1.2,0.4-2.4,0.6-3.6c0.2-1.3,0.3-2.5,0.4-3.8c0.1-1.3,0.2-2.4,0.2-3.6h-2
		c-0.2,0.8-0.4,1.8-0.7,2.9c-0.3,1.1-0.6,2.2-0.9,3.1h-7.6c0.9-3.2,1.7-6.5,2.4-9.9c0.7-3.4,1.2-6.9,1.6-10.5h7.6
		c-0.2,1.6-0.4,3.2-0.7,4.9c-0.3,1.7-0.5,3.1-0.7,4.2h10.3v5.2h-1.8c-0.5,4.5-1.1,8.8-1.9,12.7c-0.8,4-1.9,7.8-3.4,11.5
		c2.2,4.4,4.8,8.7,7.8,12.7H-379.3z M-410.6,639.1h-2.3c-0.2,0-0.4,0.1-0.6,0.2c-0.2,0.2-0.2,0.3-0.2,0.5v1.3c0,0.4,0.3,0.6,0.8,0.6
		h2.4V639.1z M-410.6,620.6h-2.1c-0.2,0-0.4,0.1-0.5,0.2c-0.2,0.2-0.2,0.3-0.2,0.6v1.3h2.9V620.6z M-410.6,627h-2.9v1.3
		c0,0.3,0.1,0.5,0.3,0.7c0.2,0.2,0.4,0.3,0.7,0.3h2V627z M-409,652.8c-0.2,0.4-0.5,0.8-0.8,1.2c-0.1,0.1-0.1,0.2-0.1,0.4
		c0,0.1,0.1,0.2,0.2,0.3c0.3,0.2,0.6,0.4,1.1,0.6c0.5,0.2,0.9,0.4,1.4,0.6c0.5-0.3,1-0.7,1.6-1.3c0.6-0.6,1-1.2,1.3-1.8H-409z
		 M-400,621.4c0-0.2-0.1-0.4-0.3-0.5c-0.2-0.2-0.4-0.3-0.6-0.3h-2.3v2.1h3.2V621.4z M-400,627h-3.2v2.3h2.4c0.5,0,0.8-0.3,0.8-0.9
		V627z M-399.8,639.8c0-0.1-0.1-0.2-0.3-0.4c-0.2-0.2-0.4-0.2-0.5-0.2h-2.6v2.7h2.7c0.2,0,0.3-0.1,0.5-0.2s0.3-0.3,0.3-0.5V639.8z"
		/>
	<path class="st1" d="M-351.3,623.7c-1.1,3.3-2.4,6.6-3.8,9.8h2.1v31h-8.6v-28.8h-4c1.7-3.5,3.3-7.1,4.6-10.8
		c1.3-3.7,2.5-7.5,3.5-11.3h9C-349.2,617-350.2,620.4-351.3,623.7z M-351.4,663.8v-5.4h19.7c1.3-4.4,2.5-8.9,3.5-13.5
		c1-4.5,1.8-9.2,2.5-13.9h8.8c-0.7,4.9-1.6,9.6-2.5,14c-0.9,4.5-2.1,8.9-3.6,13.3h9v5.4H-351.4z M-350,627.8v-5.4h13.3
		c-0.4-1.4-0.7-2.9-1-4.4c-0.3-1.5-0.6-3-0.9-4.5h9.2c0.2,1.5,0.5,3,0.8,4.5c0.3,1.5,0.7,2.9,1.1,4.4h12.3v5.4H-350z M-342.3,654.1
		c-1.5-3.7-2.6-7.5-3.6-11.3c-0.9-3.9-1.7-7.8-2.3-11.8h8.9c0.7,4,1.6,7.9,2.6,11.8c1,3.9,2.3,7.6,3.8,11.3H-342.3z"/>
	<path class="st1" d="M-256.8,664.5h-4.7c-1.4,0-2.6-0.2-3.6-0.6c-0.5-0.2-0.9-0.5-1.3-1c-0.4-0.4-0.7-0.9-1-1.6
		c-0.3-1-0.7-2.2-0.9-3.4c-0.6,0.9-1.3,1.8-2.1,2.8c-0.8,1-1.5,1.8-2.1,2.4h-8.3c0.3-0.3,0.7-0.7,1.2-1.2c0.4-0.4,0.8-0.9,1.3-1.4
		c0.4-0.5,0.8-1,1.3-1.5c0.4-0.5,0.8-0.9,1.1-1.3h-11.2v6.7h-7.6v-6.7h-12.3v-4.9h12.3v-2.7h-4.5c-1.7,0-2.9-0.4-3.8-1.3
		c-0.5-0.5-0.9-1.1-1.1-1.8c-0.2-0.7-0.3-1.5-0.3-2.4v-10c0-1.5,0.5-2.6,1.4-3.4c0.8-0.8,2-1.2,3.4-1.2h17.3c1.6,0,2.8,0.5,3.6,1.4
		c0.8,0.9,1.3,2.1,1.3,3.5v9.9c0,1.6-0.4,2.8-1.2,3.8c-0.4,0.4-0.9,0.8-1.4,1s-1.2,0.4-2,0.4h-5v2.7h11.6v4.3c1.1-1.3,2.1-2.7,3-4.1
		c0.9-1.4,1.8-2.8,2.7-4.2c-0.4-2.3-0.8-4.7-1.2-7.4c-0.4-2.7-0.7-5.3-1-7.9l-4.3,0.5v-5.1l3.6-0.5c-0.3-2.4-0.5-4.9-0.7-7.4
		c-0.2-2.5-0.4-5.1-0.5-7.7h7.6c0.2,2.4,0.4,4.7,0.6,7.1c0.2,2.4,0.4,4.7,0.7,7l9.2-1.2v5.2l-8.6,1.1c0.1,1.6,0.3,3.2,0.6,4.7
		c0.2-0.3,0.5-0.8,0.7-1.2c0.2-0.5,0.4-0.9,0.5-1.2h7.1c-1.1,2.5-2.3,4.8-3.4,7.1c-1.2,2.3-2.2,4.3-3.2,6.2c0.3,1.8,0.6,3.5,0.9,5
		c0.3,1.5,0.6,2.9,0.9,4.2c0.1,0.6,0.4,1,0.8,1.4c0.4,0.3,0.9,0.5,1.6,0.5h3L-256.8,664.5z M-293,626.5c-0.7,0.8-1.8,1.2-3.1,1.2
		h-5.4c-0.7,0-1.3-0.1-1.8-0.2c-0.6-0.1-1.1-0.4-1.5-0.7c-0.4-0.3-0.8-0.7-1-1.3c-0.2-0.5-0.3-1.2-0.3-2.1v-5.6
		c0-1.4,0.4-2.5,1.3-3.2c0.7-0.6,1.6-0.9,2.7-0.9h5.5c1.5,0,2.6,0.4,3.4,1.1c0.7,0.7,1.1,1.6,1.1,2.8v6.2
		C-292.1,625-292.4,625.9-293,626.5z M-297.5,619.2c0-0.2-0.1-0.4-0.2-0.5c-0.1-0.1-0.3-0.2-0.5-0.2h-2c-0.2,0-0.3,0.1-0.4,0.2
		c-0.1,0.2-0.2,0.3-0.2,0.5v3.1c0,0.2,0.1,0.3,0.3,0.5c0.2,0.2,0.3,0.2,0.5,0.2h1.9c0.2,0,0.3-0.1,0.4-0.2c0.1-0.1,0.2-0.3,0.2-0.5
		V619.2z M-294.8,635.1h-2.5c-0.2,0-0.4,0.1-0.5,0.2c-0.1,0.2-0.2,0.3-0.2,0.5v2h3.2V635.1z M-294.8,642.6h-3.2v2
		c0,0.2,0.1,0.4,0.2,0.6c0.2,0.2,0.3,0.3,0.5,0.3h2.5V642.6z M-277.2,626.5c-0.7,0.8-1.7,1.2-3.1,1.2h-5.4c-0.7,0-1.3-0.1-1.8-0.2
		c-0.6-0.1-1.1-0.4-1.5-0.7c-0.4-0.3-0.8-0.7-1-1.3c-0.2-0.5-0.3-1.2-0.3-2.1v-5.6c0-0.7,0.1-1.3,0.3-1.8c0.2-0.5,0.5-1,0.9-1.4
		c0.7-0.6,1.6-0.9,2.7-0.9h5.5c1.5,0,2.7,0.4,3.4,1.1c0.7,0.7,1.1,1.6,1.1,2.8v6.2C-276.3,625-276.6,625.9-277.2,626.5z
		 M-284.2,635.8c0-0.2-0.1-0.4-0.3-0.5c-0.2-0.2-0.4-0.2-0.6-0.2h-2.1v2.8h3V635.8z M-284.2,642.6h-3v2.9h2.4c0.2,0,0.3-0.1,0.4-0.2
		c0.1-0.2,0.2-0.3,0.2-0.5V642.6z M-281.8,619.2c0-0.2-0.1-0.4-0.2-0.5c-0.1-0.1-0.3-0.2-0.5-0.2h-1.7c-0.2,0-0.3,0.1-0.4,0.2
		c-0.1,0.2-0.2,0.3-0.2,0.5v3.1c0,0.2,0.1,0.3,0.3,0.5c0.2,0.2,0.3,0.2,0.5,0.2h1.6c0.2,0,0.3-0.1,0.4-0.2c0.1-0.1,0.2-0.3,0.2-0.5
		V619.2z M-262.8,624.3c-0.5-1.6-0.9-3.2-1.2-4.9s-0.6-3.3-0.9-4.9h6.6c0.2,1.7,0.5,3.4,0.9,5c0.4,1.6,0.8,3.2,1.4,4.8H-262.8z"/>
	<path class="st1" d="M-207.9,643.7c-0.8-0.6-1.5-1.2-2.3-1.8c-0.7-0.6-1.5-1.3-2.3-2c-0.7,0.6-1.5,1.2-2.4,1.8
		c-0.9,0.7-1.9,1.3-2.9,2h-10v13.6c0,1.2-0.4,2.2-1.1,3c-0.4,0.4-0.9,0.8-1.4,1c-0.5,0.3-1.1,0.4-1.8,0.4h-11.7
		c-0.9,0-1.7-0.1-2.3-0.4c-0.6-0.3-1.2-0.7-1.6-1.2c-0.8-1.1-1.3-2.5-1.3-4.3v-34c0-1.2,0.4-2.3,1.1-3.3c0.9-1.2,2.2-1.8,3.8-1.8
		h11.3c0.8,0,1.6,0.1,2.2,0.4c0.6,0.3,1.1,0.7,1.6,1.2c0.8,1,1.2,2.2,1.2,3.8v7.2c0.5-0.8,1-1.9,1.6-3.1c0.6-1.2,1.2-2.5,1.8-3.8
		c0.6-1.4,1.2-2.8,1.8-4.3s1.1-3,1.6-4.5l8.3-0.1c-0.2,0.7-0.4,1.5-0.7,2.3s-0.6,1.6-0.9,2.5h11.7c0.8,0,1.4,0.2,2,0.7
		c0.6,0.5,1,1.1,1.3,1.9c0.3,0.7,0.4,1.4,0.3,2.2c-0.1,0.8-0.3,1.5-0.6,2.1c-0.9,1.8-2,3.5-3.1,5.2c-1.2,1.7-2.5,3.4-4,5.1
		c1.6,1.5,3.3,3,5,4.4c1.7,1.4,3.6,2.7,5.5,3.9H-207.9z M-240.4,621.9h-1.7c-0.3,0-0.5,0.2-0.5,0.5v13.5h2.3V621.9z M-240.4,641
		h-2.3v14.9c0,0.5,0.2,0.8,0.6,0.8h1.6V641z M-233.9,622.4c0-0.1-0.1-0.2-0.2-0.3c-0.1-0.1-0.3-0.2-0.4-0.2h-1.6v13.9h2.2V622.4z
		 M-233.9,641h-2.2v15.7h1.5c0.5,0,0.7-0.3,0.7-0.8V641z M-217.1,634.9c-0.5-0.4-1.2-1-1.9-1.6c-0.7-0.7-1.4-1.3-2.1-1.9h-6.6v10.9
		C-223.9,640.1-220.3,637.6-217.1,634.9z M-201.3,663.2c-0.9,0.8-2.1,1.2-3.5,1.2H-220c-0.8,0-1.5-0.2-2.1-0.5
		c-0.7-0.3-1.2-0.7-1.6-1.3c-0.8-1-1.2-2.1-1.2-3.4v-9.5c0-0.5,0.2-1.1,0.5-1.6c0.3-0.6,0.7-1,1.3-1.5c0.4-0.3,0.9-0.6,1.4-0.8
		c0.5-0.2,1-0.3,1.6-0.3h16c0.6,0,1.1,0.1,1.6,0.4c0.5,0.3,1,0.7,1.4,1.1c0.7,0.8,1.1,1.8,1.1,2.8v10.2
		C-200,661.4-200.5,662.4-201.3,663.2z M-207.6,624.2c0.1-0.2,0-0.3-0.1-0.4c-0.1-0.1-0.3-0.2-0.4-0.2h-8.2
		c-0.2,0.5-0.5,1.1-0.9,1.8c-0.3,0.7-0.7,1.3-0.9,1.8h3.1c0.3,0.4,0.8,1,1.5,1.6c0.6,0.7,1.2,1.2,1.8,1.7c0.8-0.9,1.5-1.9,2.3-3.1
		C-208.6,626.1-208,625.1-207.6,624.2z M-207.7,651.6c0-0.2-0.1-0.4-0.3-0.5c-0.2-0.2-0.4-0.3-0.5-0.3h-7.8c-0.2,0-0.3,0.1-0.5,0.3
		c-0.2,0.2-0.3,0.3-0.3,0.4v6.8c0,0.2,0.1,0.4,0.3,0.5c0.2,0.2,0.4,0.3,0.6,0.3h7.6c0.2,0,0.4-0.1,0.6-0.3c0.2-0.2,0.3-0.4,0.3-0.6
		V651.6z"/>
	<path class="st1" d="M-141.5,661.4c-0.3,0.6-0.7,1.2-1.2,1.6c-0.5,0.4-1.1,0.8-1.7,1c-0.6,0.3-1.3,0.4-2,0.4h-10.3l-2-5.4h8.4
		c0.3,0,0.7-0.1,0.9-0.4s0.4-0.6,0.4-0.9V627c0-0.3-0.2-0.6-0.5-0.9c-0.3-0.3-0.6-0.4-1-0.4h-7.5c-0.3,1.2-0.6,2.5-1,3.8
		c-0.4,1.3-0.9,2.5-1.4,3.6h-8.4v25.3c0,1.5-0.4,2.7-1.2,3.5c-0.8,0.8-2,1.3-3.6,1.3h-12.8c-1.4,0-2.6-0.5-3.5-1.4
		c-0.4-0.4-0.8-0.9-1-1.5c-0.2-0.6-0.3-1.2-0.3-1.8v-33.8c0-0.7,0.1-1.4,0.3-1.9c0.2-0.5,0.5-1,0.9-1.4c0.5-0.5,1.2-0.9,1.9-1.1
		c0.7-0.2,1.5-0.3,2.3-0.2c0.4-1.1,0.7-2.2,1-3.4c0.3-1.1,0.6-2.3,0.9-3.5h8.7c-0.3,1.2-0.6,2.3-0.9,3.5c-0.3,1.2-0.6,2.3-1,3.4h3
		c1.6,0,2.9,0.4,3.9,1.3c0.8,0.9,1.2,2,1.2,3.5v6.6c1.2-2.9,2.2-5.9,3.1-9c0.9-3.1,1.7-6.2,2.3-9.3h8.4c-0.2,1-0.4,2.1-0.7,3.4
		c-0.3,1.3-0.5,2.5-0.8,3.7h10.1c1.7,0,3,0.6,4,1.7c0.4,0.4,0.8,0.9,1,1.5c0.2,0.6,0.3,1.3,0.3,2v33.8
		C-141.1,660.1-141.2,660.8-141.5,661.4z M-176.3,626.6c0-0.3-0.1-0.5-0.3-0.7c-0.2-0.2-0.5-0.3-0.8-0.3h-4.6
		c-0.8,0-1.2,0.4-1.2,1.1v11.6h6.9V626.6z M-176.3,643.5h-6.9v12.9c0,0.3,0.1,0.5,0.3,0.8s0.5,0.4,0.8,0.4h4.7
		c0.3,0,0.6-0.1,0.8-0.3c0.2-0.2,0.3-0.5,0.3-0.8V643.5z M-160,652.4c-1.3-2.8-2.5-5.6-3.5-8.5c-1-2.9-1.9-5.8-2.8-8.8h8.1
		c1,3,2.1,5.9,3.3,8.8c1.1,2.9,2.5,5.7,4,8.5H-160z"/>
	<path class="st1" d="M-126.9,656.6c-0.4,2.1-0.9,4.1-1.5,6h-6.4c0.7-2,1.3-4,1.7-6c0.4-2,0.8-4.1,1.1-6.3h6
		C-126.2,652.5-126.5,654.5-126.9,656.6z M-83.1,647c-0.7,1.8-1.6,3.5-2.8,5.1c-1.2,1.7-2.4,3.2-3.8,4.7c-1.4,1.5-2.9,2.9-4.4,4.1
		c-1.6,1.3-3.1,2.4-4.7,3.4h-12.2c0.6-0.3,1-0.7,1.4-0.9c0.4-0.3,0.7-0.6,1.1-0.9h-6.2c-0.5-2-0.9-4-1.2-6c-0.3-2-0.4-4.1-0.5-6.3
		h5.8c0.2,2.1,0.5,4.1,0.8,6.1c0.4,2,0.9,4,1.5,6c1.5-0.9,2.9-1.9,4.2-2.9c1.4-1,2.7-2.1,4.1-3.4c-0.7-0.9-1.3-1.8-1.9-2.6
		s-1.3-1.7-1.9-2.5h-6c1.6-1.8,3.1-3.8,4.5-5.8c1.4-2,2.7-4,3.8-6.1h-8.8c1.5-0.8,3-1.8,4.6-3c1.6-1.1,3-2.3,4.3-3.6
		c-0.7-0.8-1.5-1.7-2.3-2.7c-0.8-1-1.5-1.9-2-2.8h-3.7v7.1c0,1.4-0.3,2.6-0.9,3.4c-0.8,1.2-2.2,1.7-4,1.7h-3.2v3.5h8.8v5.1h-8.8
		v16.6h-7.6v-16.6h-8.7v-5.1h8.7v-3.5h-3.2c-1.4,0-2.6-0.4-3.6-1.3c-0.4-0.4-0.8-0.9-1-1.5c-0.3-0.6-0.4-1.2-0.4-1.9v-16.1
		c0-0.6,0.1-1.1,0.4-1.6c0.2-0.5,0.6-1,1-1.4c1-1,2.2-1.4,3.6-1.4h13.1c1.7,0,3,0.4,4,1.2c1.2,0.9,1.8,2.2,1.8,3.9v6.3
		c1.3-1.9,2.6-3.8,3.6-5.8c1.1-2,2.1-4,3.1-6.1h8.3c-0.2,0.4-0.4,1-0.8,1.6c-0.3,0.6-0.6,1.1-0.8,1.5h8.7c0.8,0,1.4,0.1,1.9,0.4
		c0.5,0.3,0.9,0.7,1.2,1.1c0.3,0.5,0.5,1.1,0.4,1.7c0,0.6-0.1,1.3-0.3,1.9c-0.5,1.5-1.1,2.9-1.8,4.3c-0.7,1.4-1.6,2.7-2.6,4
		c-1.1,1.5-2.4,2.9-3.8,4.2c-1.4,1.3-2.9,2.5-4.5,3.5h4.9c-0.2,0.5-0.4,1-0.7,1.5c-0.3,0.6-0.6,1.1-0.8,1.5h6.2
		c1.9,0,3.2,0.5,3.9,1.5c0.5,0.7,0.7,1.4,0.6,2.3C-82.6,645.2-82.8,646.1-83.1,647z M-125.1,618.8h-1.8c-0.2,0-0.3,0.1-0.5,0.2
		c-0.2,0.2-0.3,0.3-0.3,0.3v4.5h2.5V618.8z M-125.1,628.7h-2.5v4.7c0,0.2,0.1,0.4,0.2,0.5c0.1,0.1,0.3,0.2,0.4,0.2h1.9V628.7z
		 M-115,619.6c0-0.2-0.1-0.3-0.3-0.5c-0.2-0.2-0.3-0.3-0.5-0.3h-1.8v5h2.5V619.6z M-115,628.7h-2.5v5.4h1.9c0.4,0,0.6-0.2,0.6-0.7
		V628.7z M-92.7,622.1c0.1-0.1,0.1-0.3,0-0.5c-0.1-0.2-0.2-0.3-0.3-0.3h-5.3c-0.3,0.5-0.6,1.1-1,1.7c-0.4,0.7-0.8,1.3-1.1,1.8h2.1
		c0.1,0.1,0.2,0.3,0.4,0.5c0.2,0.3,0.4,0.5,0.6,0.8c0.2,0.3,0.4,0.5,0.6,0.8c0.2,0.3,0.4,0.4,0.5,0.5c0.7-0.7,1.4-1.4,2-2.2
		C-93.7,624.4-93.2,623.4-92.7,622.1z M-91.7,646.2c0.1-0.2,0.1-0.3,0-0.4c-0.1-0.1-0.2-0.2-0.4-0.2h-4.2c-0.2,0.3-0.5,0.7-0.8,1.3
		c-0.4,0.5-0.7,1-1,1.3h1.2c0.2,0.3,0.6,0.8,1,1.4c0.5,0.6,0.8,1.1,1,1.4c0.7-0.7,1.3-1.5,1.8-2.3S-91.9,646.9-91.7,646.2z"/>
	<path class="st1" d="M-62.7,623.6c-0.9,3.3-2,6.6-3.1,9.9h1.6v30.9h-8.4v-28.8H-76c1.6-3.5,2.9-7.1,4-10.8c1.1-3.7,2-7.5,2.8-11.3
		h8.9C-60.9,616.9-61.7,620.3-62.7,623.6z M-39.1,652.4v12h-8.5v-12h-14.9v-5.3h14.9v-7.2h-13.2v-5.4h13.2v-20.9h8.5v20.9h12.9v5.4
		h-12.9v7.2h14.2v5.3H-39.1z M-57.1,631.3c-0.7-2.4-1.4-4.8-1.9-7.3c-0.5-2.5-1-4.9-1.4-7.4h8.3c0.4,2.5,0.9,5,1.5,7.4
		c0.6,2.4,1.2,4.8,2,7.3H-57.1z M-27.2,624c-0.6,2.4-1.2,4.8-1.9,7.3h-9c0.8-2.4,1.5-4.8,2.2-7.2c0.7-2.4,1.2-4.9,1.6-7.5h8.6
		C-26.1,619.1-26.6,621.6-27.2,624z"/>
</g>
</svg>
